<?xml version="1.0" standalone="no"?>
<!DOCTYPE svg PUBLIC "-//W3C//DTD SVG 20010904//EN"
 "http://www.w3.org/TR/2001/REC-SVG-20010904/DTD/svg10.dtd">
<svg version="1.0" xmlns="http://www.w3.org/2000/svg"
 width="1747.000000pt" height="366.000000pt" viewBox="0 0 1747.000000 366.000000"
 preserveAspectRatio="xMidYMid meet">

<g transform="translate(0.000000,366.000000) scale(0.100000,-0.100000)"
fill="#FFFFFF" stroke="none">
<path d="M280 3500 c0 -52 4 -64 31 -95 17 -19 37 -35 45 -35 7 0 28 -14 46
-32 36 -35 44 -27 29 29 -6 21 -11 54 -11 74 0 37 -23 66 -82 102 -49 30 -58
24 -58 -43z m90 -26 c34 -40 36 -67 4 -72 -28 -4 -64 41 -64 79 0 40 21 37 60
-7z"/>
<path d="M780 3484 c0 -62 2 -68 34 -100 19 -19 40 -34 48 -34 8 0 27 -14 42
-31 15 -17 30 -29 32 -26 4 4 -6 81 -22 164 -4 19 -104 93 -126 93 -4 0 -8
-30 -8 -66z m66 0 c47 -32 67 -104 27 -104 -22 0 -60 47 -65 80 -7 44 0 48 38
24z"/>
<path d="M1210 3471 c0 -68 17 -95 84 -135 24 -14 46 -32 50 -41 3 -8 13 -15
22 -15 12 0 14 5 8 18 -4 9 -10 45 -13 79 -5 47 -12 68 -31 88 -25 27 -90 65
-110 65 -6 0 -10 -25 -10 -59z m78 -7 c43 -30 51 -94 11 -94 -25 0 -49 38 -49
77 0 37 6 40 38 17z"/>
<path d="M1090 3120 c0 -5 21 -21 48 -34 96 -51 115 -78 142 -210 11 -54 22
-102 26 -107 9 -15 -14 -10 -79 17 -79 34 -222 74 -264 74 -17 0 -35 -5 -39
-12 -11 -17 21 -35 75 -41 80 -9 201 -55 273 -103 114 -76 193 -188 222 -315
8 -35 27 -166 41 -291 64 -568 131 -810 289 -1052 l55 -85 3 -420 c2 -316 6
-423 15 -432 7 -7 16 -9 20 -5 5 4 6 133 5 287 -2 153 -1 331 3 394 l7 115 40
-33 c180 -145 346 -218 504 -220 69 -1 89 3 137 26 32 16 75 49 101 78 42 46
86 137 86 177 0 26 11 37 57 61 43 21 64 51 77 106 4 17 20 50 36 75 17 28 30
66 34 100 4 30 11 61 15 69 5 8 37 18 71 23 83 11 127 33 158 80 24 37 25 43
14 84 -7 24 -35 98 -63 165 -57 136 -99 288 -99 360 0 40 7 57 45 111 115 163
119 181 110 533 -7 256 -10 284 -28 266 -8 -8 -14 -108 -18 -309 -7 -339 -5
-330 -95 -445 l-57 -72 6 -105 c7 -132 32 -226 96 -371 64 -145 69 -166 41
-201 -44 -56 -147 -60 -272 -12 -37 15 -71 24 -75 20 -13 -13 13 -41 60 -66
l47 -25 0 -72 c0 -67 -2 -73 -31 -97 -17 -14 -39 -26 -48 -26 -10 0 -65 13
-122 30 -108 31 -144 36 -153 21 -8 -12 53 -37 174 -71 58 -17 106 -30 107
-30 2 0 3 -9 3 -20 0 -30 -50 -78 -95 -92 -40 -13 -40 -13 -47 -75 -8 -76 -34
-128 -89 -177 -99 -90 -213 -100 -368 -33 -110 47 -229 120 -297 180 -52 47
-54 50 -54 100 0 62 36 168 81 243 45 73 107 132 235 223 59 42 109 82 112 89
10 30 -52 7 -154 -58 -60 -38 -112 -70 -116 -70 -4 0 -2 15 3 33 5 17 30 113
55 212 66 263 85 298 207 388 69 51 107 87 93 87 -17 0 -76 -36 -142 -86 -39
-30 -74 -54 -78 -54 -4 0 -4 9 -1 20 9 27 -23 40 -40 17 -7 -9 -18 -51 -25
-92 -7 -41 -17 -75 -21 -75 -5 0 -9 4 -9 9 0 5 -21 32 -46 60 -50 56 -146 109
-213 118 -67 9 -53 -20 26 -53 69 -30 164 -107 187 -153 22 -43 28 -107 16
-168 -18 -94 -68 -249 -125 -388 -29 -71 -60 -153 -69 -182 -24 -72 -38 -82
-66 -43 -35 50 -116 229 -148 330 -40 125 -82 341 -89 460 -11 184 36 261 216
354 l94 49 96 -7 c56 -4 111 -2 131 4 25 7 67 43 146 125 61 64 107 118 102
121 -5 3 -66 8 -136 11 -117 5 -131 4 -179 -17 -64 -27 -118 -84 -133 -139
-11 -42 -28 -64 -62 -82 -29 -16 -31 -7 -8 42 23 52 27 119 6 119 -7 0 -23
-26 -35 -58 -18 -50 -38 -75 -136 -173 -64 -63 -120 -115 -125 -117 -16 -6
-25 89 -24 248 0 171 14 256 64 404 16 49 27 92 24 95 -11 11 -39 -18 -62 -63
-13 -25 -34 -94 -47 -152 -13 -59 -26 -108 -29 -111 -7 -7 -90 101 -142 183
-67 108 -78 223 -30 336 9 21 16 45 16 54 0 28 -25 -1 -45 -51 -9 -25 -19 -45
-22 -45 -3 0 -26 18 -51 41 -70 61 -152 99 -152 69z m1225 -620 c9 -15 -19
-55 -89 -126 -57 -58 -65 -63 -117 -69 -60 -7 -103 0 -93 16 3 5 37 25 75 44
38 20 69 40 69 45 0 16 -14 12 -96 -25 -42 -19 -79 -33 -82 -31 -2 3 -1 18 3
33 9 36 72 96 116 110 45 14 206 16 214 3z"/>
<path d="M520 3008 c1 -91 26 -140 87 -171 26 -14 59 -37 72 -51 14 -14 27
-26 31 -26 4 0 -1 51 -11 112 -13 82 -23 116 -36 126 -20 15 -129 72 -138 72
-3 0 -5 -28 -5 -62z m105 -31 c48 -46 60 -92 31 -116 -38 -32 -106 42 -106
117 0 55 16 55 75 -1z"/>
<path d="M4921 2843 c-23 -50 -193 -438 -202 -461 -8 -20 -6 -23 12 -20 15 2
28 21 48 68 l27 65 111 3 111 3 29 -71 28 -70 42 0 42 0 -80 183 c-44 100 -95
215 -112 255 -17 39 -34 72 -37 72 -4 0 -12 -12 -19 -27z m48 -199 c23 -55 41
-106 41 -112 0 -8 -29 -12 -95 -12 -52 0 -95 2 -95 5 0 20 95 234 101 228 4
-5 25 -53 48 -109z"/>
<path d="M7252 2854 c-16 -31 -212 -482 -212 -488 0 -3 8 -6 18 -6 14 0 26 19
46 70 l28 70 110 0 110 0 31 -70 c30 -69 31 -70 69 -70 21 0 38 3 38 6 0 10
-211 489 -220 498 -4 4 -13 0 -18 -10z m42 -208 c26 -60 46 -113 46 -117 0 -5
-43 -9 -95 -9 -60 0 -95 4 -95 11 0 5 16 49 36 97 20 48 40 98 45 111 5 13 11
22 14 20 2 -3 24 -54 49 -113z"/>
<path d="M8063 2852 c-106 -38 -163 -99 -183 -199 -43 -204 133 -343 370 -292
28 6 54 17 57 25 9 24 -1 25 -43 8 -60 -25 -170 -16 -221 18 -60 39 -88 103
-87 198 1 108 37 171 123 215 37 19 99 15 160 -11 45 -19 51 -18 51 10 0 30
-17 36 -105 42 -52 4 -83 0 -122 -14z"/>
<path d="M8625 2836 c-8 -19 -57 -132 -110 -251 -52 -119 -95 -218 -95 -221 0
-2 8 -4 19 -4 13 0 25 16 41 58 13 31 28 63 33 70 6 8 42 12 112 12 70 0 106
-4 112 -12 6 -7 20 -39 33 -70 23 -56 25 -58 62 -58 21 0 38 3 38 8 0 16 -215
501 -223 502 -4 0 -14 -15 -22 -34z m54 -196 c22 -58 41 -108 41 -112 0 -5
-43 -8 -95 -8 -52 0 -95 4 -95 9 0 21 94 231 100 224 4 -4 26 -55 49 -113z"/>
<path d="M10672 2854 c-16 -31 -212 -482 -212 -488 0 -3 8 -6 18 -6 14 0 26
19 46 70 l28 70 110 0 110 0 31 -70 c30 -69 31 -70 69 -70 21 0 38 3 38 6 0
10 -211 489 -220 498 -4 4 -13 0 -18 -10z m43 -208 c25 -59 42 -112 39 -117
-8 -13 -184 -12 -184 2 0 5 16 49 36 97 20 48 40 98 45 111 5 13 12 22 14 19
3 -2 25 -53 50 -112z"/>
<path d="M13174 2852 c-102 -36 -163 -115 -171 -226 -14 -172 95 -289 254
-273 65 7 147 50 184 97 37 46 63 148 54 209 -25 168 -159 249 -321 193z m117
-22 c77 -21 121 -103 122 -221 0 -61 -6 -88 -26 -132 -32 -70 -71 -97 -142
-97 -106 0 -160 74 -160 220 0 94 18 142 72 191 54 50 74 56 134 39z"/>
<path d="M14105 2861 c-130 -32 -215 -135 -215 -260 0 -103 42 -171 134 -219
43 -22 65 -26 136 -26 112 -1 160 9 160 34 0 18 -2 18 -35 4 -49 -20 -151 -18
-201 5 -79 36 -122 128 -111 241 6 72 38 131 87 165 60 42 94 42 228 0 19 -6
22 -4 22 18 0 21 -7 26 -44 36 -49 12 -115 13 -161 2z"/>
<path d="M14657 2863 c-9 -15 -217 -491 -217 -497 0 -3 8 -6 18 -6 13 0 25 17
42 58 13 31 27 63 33 70 6 8 42 12 112 12 70 0 106 -4 112 -12 5 -7 20 -39 33
-70 22 -57 23 -58 62 -58 48 0 55 -24 -73 268 -101 229 -113 251 -122 235z
m38 -217 c25 -59 45 -112 45 -117 0 -5 -43 -9 -95 -9 -60 0 -95 4 -95 11 0 5
16 49 36 97 20 48 40 98 45 111 5 13 12 22 14 19 3 -2 25 -53 50 -112z"/>
<path d="M16429 2854 c-63 -19 -133 -83 -156 -142 -26 -67 -24 -184 5 -238 75
-144 267 -167 392 -46 105 102 108 286 6 380 -66 61 -149 77 -247 46z m156
-42 c80 -47 107 -219 53 -334 -33 -71 -72 -98 -141 -98 -66 0 -103 24 -132 85
-64 132 -29 289 80 357 35 22 91 18 140 -10z"/>
<path d="M16985 2851 c-45 -20 -75 -64 -75 -109 0 -47 39 -93 127 -147 45 -27
89 -59 97 -70 26 -34 20 -83 -13 -116 -25 -24 -37 -29 -81 -29 -28 0 -67 7
-87 15 -39 16 -49 14 -40 -9 6 -16 88 -36 150 -36 97 0 173 72 163 153 -6 49
-31 77 -132 142 -45 29 -89 63 -98 76 -22 32 -20 82 4 104 21 19 56 16 138
-12 49 -16 47 -16 56 14 6 19 1 22 -44 32 -72 16 -119 13 -165 -8z"/>
<path d="M3820 2610 l0 -251 138 3 c136 3 137 3 140 27 3 20 1 23 -20 18 -48
-12 -137 -19 -162 -13 l-26 6 0 230 0 230 -35 0 -35 0 0 -250z"/>
<path d="M4260 2610 l0 -250 155 0 155 0 0 26 c0 25 -2 26 -42 20 -24 -3 -76
-8 -115 -12 l-73 -7 0 112 0 111 86 0 c64 0 85 3 82 13 -3 8 -32 13 -86 15
l-82 3 0 88 c0 72 3 90 16 95 23 9 84 7 144 -4 29 -6 54 -9 55 -8 2 2 6 13 9
26 l7 22 -155 0 -156 0 0 -250z"/>
<path d="M5320 2610 c0 -242 1 -250 20 -250 19 0 20 8 22 200 l3 199 160 -200
c88 -111 163 -203 168 -206 4 -2 7 111 7 251 0 219 -2 256 -15 256 -12 0 -15
-29 -17 -180 l-3 -180 -143 180 c-127 161 -146 180 -172 180 l-30 0 0 -250z"/>
<path d="M5920 2611 l0 -251 100 0 c127 0 190 14 243 54 59 44 87 104 87 186
0 113 -51 188 -165 239 -17 8 -80 16 -147 19 l-118 4 0 -251z m254 189 c69
-44 100 -115 94 -216 -9 -131 -77 -194 -211 -194 l-67 0 0 214 c0 242 -7 223
86 225 40 1 60 -5 98 -29z"/>
<path d="M6530 2611 l0 -251 40 0 40 0 0 120 0 120 28 0 c23 0 39 -17 116
-126 l88 -126 35 5 c20 4 38 8 40 11 3 2 -38 56 -91 120 -53 63 -96 117 -96
120 0 3 7 6 15 6 9 0 34 9 55 20 91 47 93 162 3 206 -29 15 -66 20 -155 22
l-118 4 0 -251z m211 209 c25 -14 49 -62 49 -97 0 -59 -59 -103 -140 -103
l-40 0 0 99 c0 70 4 101 13 104 22 10 98 7 118 -3z"/>
<path d="M9047 2748 c-20 -363 -21 -388 -5 -388 13 0 17 22 22 128 3 70 9 162
12 206 l6 78 92 -202 c50 -111 95 -202 101 -202 5 0 50 93 100 206 71 163 91
201 97 184 4 -13 10 -107 13 -210 l7 -188 40 0 41 0 -7 88 c-3 48 -8 141 -11
207 -3 66 -8 139 -11 163 -5 41 -6 42 -42 42 l-37 0 -80 -185 c-44 -102 -83
-185 -86 -185 -3 0 -44 83 -90 185 l-84 185 -36 0 -36 0 -6 -112z"/>
<path d="M9780 2610 l0 -250 35 0 35 0 0 250 0 250 -35 0 -35 0 0 -250z"/>
<path d="M10070 2610 l0 -250 140 0 140 0 0 26 c0 22 -3 25 -23 20 -47 -11
-136 -18 -161 -12 l-26 6 0 230 0 230 -35 0 -35 0 0 -250z"/>
<path d="M11360 2841 c0 -29 -19 -366 -24 -428 -4 -46 -2 -53 14 -53 16 0 18
15 25 178 3 97 10 188 13 200 6 19 24 -14 97 -177 50 -110 93 -201 96 -201 4
0 49 96 100 212 l94 213 7 -75 c4 -41 10 -137 14 -212 l6 -138 40 0 40 0 -6
58 c-3 31 -8 111 -11 177 -3 66 -8 153 -11 193 l-6 72 -38 0 -37 0 -80 -182
c-44 -101 -83 -182 -88 -181 -5 1 -45 82 -89 180 l-82 178 -37 3 c-32 3 -37 0
-37 -17z"/>
<path d="M12090 2610 l0 -250 149 0 c145 0 149 1 154 22 4 12 5 24 3 25 -2 2
-43 -1 -92 -7 -49 -5 -102 -10 -117 -10 l-28 0 3 108 3 107 83 3 c64 2 82 6
82 17 0 12 -17 15 -85 15 l-85 0 0 90 c0 88 0 90 26 96 25 7 121 0 177 -12 24
-6 27 -4 27 20 l0 26 -150 0 -150 0 0 -250z"/>
<path d="M12600 2610 l0 -250 134 0 c127 0 135 1 141 21 4 11 5 22 3 24 -1 2
-37 -2 -78 -7 -42 -6 -88 -8 -103 -4 l-27 6 0 230 0 230 -35 0 -35 0 0 -250z"/>
<path d="M15070 2836 c0 -28 -18 -353 -24 -428 -2 -40 0 -48 14 -48 15 0 18
16 23 113 4 61 7 141 8 177 2 133 7 129 103 -84 49 -108 93 -199 97 -201 4 -3
49 90 100 206 l94 211 7 -53 c4 -30 10 -125 14 -211 l6 -158 40 0 40 0 -6 73
c-3 39 -8 126 -11 192 -3 66 -8 146 -11 178 l-6 57 -37 0 -37 0 -84 -191 -84
-191 -30 68 c-17 38 -56 123 -86 189 -56 120 -56 120 -93 123 -34 3 -37 1 -37
-22z"/>
<path d="M15800 2610 l0 -250 40 0 40 0 0 109 0 108 71 6 c124 10 184 58 184
147 0 93 -64 129 -227 130 l-108 0 0 -250z m211 210 c24 -13 49 -61 49 -95 0
-36 -25 -87 -50 -102 -10 -7 -44 -16 -75 -19 l-55 -7 0 111 c0 79 4 112 13
115 22 10 98 7 118 -3z"/>
<path d="M198 2620 c-32 -17 -79 -33 -105 -36 -77 -9 -93 -14 -93 -28 0 -14
29 -28 95 -46 67 -17 67 -17 39 -105 -33 -103 -29 -148 21 -221 22 -31 45 -54
55 -54 10 0 62 12 117 27 72 19 122 27 188 27 112 0 155 -16 285 -106 52 -36
112 -74 133 -84 20 -10 37 -21 37 -24 0 -4 -28 -10 -62 -14 -70 -7 -213 -43
-301 -76 -54 -20 -78 -42 -64 -57 4 -3 55 8 114 25 149 44 242 62 348 69 258
16 432 -97 508 -332 29 -89 38 -156 47 -384 15 -328 -4 -642 -55 -931 -17 -97
-19 -170 -5 -170 25 0 84 305 101 529 7 87 9 276 6 480 -5 326 -5 338 -31 423
-68 225 -219 607 -243 616 -22 7 -15 -32 28 -153 23 -64 39 -118 36 -121 -3
-3 -25 6 -49 19 -24 14 -96 42 -160 61 -279 84 -418 178 -497 333 -17 34 -35
64 -41 68 -19 12 -22 -24 -5 -75 9 -28 15 -52 14 -53 -2 -1 -51 0 -108 3
l-103 5 -2 45 c-1 25 -17 77 -34 117 -18 40 -35 94 -38 120 -9 82 -12 88 -53
111 -50 28 -55 28 -123 -8z m116 -52 c9 -12 16 -41 16 -63 1 -41 10 -69 50
-161 31 -69 23 -100 -33 -124 -80 -36 -147 -28 -172 20 -21 41 -19 76 11 166
14 43 23 90 21 104 -3 13 1 37 9 52 19 37 75 40 98 6z"/>
<path d="M12548 1753 c-29 -35 -30 -43 -5 -43 14 0 35 9 48 20 21 17 22 21 9
30 -22 14 -35 12 -52 -7z"/>
<path d="M6540 1505 l0 -165 25 0 c23 0 25 3 25 50 l0 50 55 0 c77 0 122 21
140 64 19 45 19 70 0 106 -24 46 -62 60 -160 60 l-85 0 0 -165z m178 99 c15
-10 22 -25 22 -49 0 -46 -29 -65 -97 -65 l-53 0 0 65 0 65 53 0 c31 0 61 -6
75 -16z"/>
<path d="M7063 1651 c-36 -22 -47 -49 -38 -91 8 -37 20 -46 90 -70 68 -23 85
-36 85 -61 0 -41 -61 -50 -130 -18 -42 19 -45 19 -57 3 -16 -22 -9 -32 41 -55
74 -33 169 -19 196 30 5 11 10 34 10 51 0 41 -34 71 -104 93 -31 10 -60 26
-66 37 -22 42 55 67 110 35 34 -19 35 -19 48 11 11 23 10 26 -23 40 -49 20
-123 18 -162 -5z"/>
<path d="M7510 1505 l0 -165 25 0 25 0 0 165 0 165 -25 0 -25 0 0 -165z"/>
<path d="M7885 1647 c-45 -25 -85 -92 -85 -142 0 -50 40 -117 85 -143 53 -30
136 -27 184 7 30 22 31 24 16 41 -16 18 -18 18 -48 -1 -38 -23 -78 -24 -117
-4 -42 21 -60 53 -60 103 0 37 6 50 35 79 33 33 39 35 85 31 28 -3 59 -13 69
-22 16 -15 20 -15 31 -1 48 58 -109 100 -195 52z"/>
<path d="M8395 1647 c-47 -27 -85 -88 -85 -137 -1 -173 249 -234 328 -80 44
86 13 182 -72 221 -56 25 -122 24 -171 -4z m171 -61 c29 -29 34 -41 34 -80 0
-36 -6 -52 -29 -78 -27 -30 -35 -33 -86 -33 -51 0 -59 3 -86 33 -23 26 -29 42
-29 78 0 39 5 51 34 80 29 29 41 34 81 34 40 0 52 -5 81 -34z"/>
<path d="M8900 1505 l0 -165 100 0 100 0 0 25 c0 24 -2 25 -70 25 l-70 0 0
140 0 140 -30 0 -30 0 0 -165z"/>
<path d="M9410 1659 c-61 -25 -102 -88 -102 -154 0 -107 89 -177 204 -162 147
20 189 209 66 300 -32 24 -128 33 -168 16z m129 -54 c28 -14 61 -68 61 -100 0
-31 -30 -81 -59 -98 -60 -35 -136 -13 -165 47 -19 40 -20 53 -5 95 21 61 105
89 168 56z"/>
<path d="M9970 1659 c-62 -25 -100 -85 -100 -157 0 -54 25 -100 72 -135 41
-30 124 -34 182 -9 l46 21 0 60 c0 58 -1 61 -25 61 -23 0 -25 -4 -25 -45 0
-40 -3 -47 -26 -55 -50 -20 -92 -12 -130 23 -30 27 -37 41 -38 74 0 22 5 52
12 65 29 54 112 74 173 42 17 -8 32 -14 33 -12 1 2 8 11 15 20 12 16 9 20 -30
38 -47 21 -118 25 -159 9z"/>
<path d="M10430 1505 l0 -165 25 0 25 0 0 165 0 165 -25 0 -25 0 0 -165z"/>
<path d="M10784 1514 c-38 -86 -70 -161 -72 -165 -2 -5 10 -9 26 -9 24 0 31 6
44 38 l14 37 87 -3 86 -3 13 -35 c10 -28 17 -34 40 -34 15 0 28 3 28 8 0 4
-31 77 -68 162 -65 148 -70 155 -99 158 -30 3 -30 2 -99 -154z m128 24 c14
-35 24 -66 21 -70 -2 -5 -29 -8 -60 -8 -40 0 -54 3 -50 13 33 83 53 127 58
127 3 0 17 -28 31 -62z"/>
<path d="M11643 1649 c-118 -58 -118 -231 1 -288 65 -32 143 -25 189 16 16 15
16 18 1 34 -15 17 -17 17 -47 -2 -87 -52 -187 14 -174 115 11 82 104 123 177
79 24 -14 31 -14 44 -4 24 20 20 27 -27 50 -55 27 -111 27 -164 0z"/>
<path d="M12090 1505 l0 -165 100 0 c100 0 100 0 100 25 0 23 -3 24 -72 27
l-73 3 -3 138 -3 137 -24 0 -25 0 0 -165z"/>
<path d="M12520 1505 l0 -165 25 0 25 0 0 165 0 165 -25 0 -25 0 0 -165z"/>
<path d="M12840 1505 l0 -165 31 0 30 0 -3 115 c-2 63 -1 115 2 115 3 -1 42
-52 88 -115 74 -102 87 -115 113 -115 l29 0 0 165 0 165 -30 0 -30 0 0 -117 0
-117 -87 117 c-75 100 -91 117 -115 117 l-28 0 0 -165z"/>
<path d="M13390 1505 l0 -165 30 0 30 0 0 165 0 165 -30 0 -30 0 0 -165z"/>
<path d="M13778 1650 c-114 -61 -116 -222 -3 -288 53 -30 136 -27 184 7 30 22
31 24 16 41 -16 18 -18 18 -48 -1 -38 -23 -78 -24 -117 -4 -42 21 -60 53 -60
103 0 37 6 50 35 79 33 33 39 35 85 31 28 -3 59 -13 69 -22 16 -15 20 -15 31
-1 46 56 -107 100 -192 55z"/>
<path d="M14303 1613 c-87 -197 -113 -258 -113 -265 0 -4 11 -8 25 -8 19 0 29
9 42 36 10 20 21 36 26 35 4 0 41 -1 82 -1 l75 0 17 -35 c13 -28 23 -35 45
-35 33 0 40 -23 -57 198 -55 126 -59 132 -87 132 -26 0 -32 -6 -55 -57z m82
-69 c36 -81 35 -84 -30 -84 -30 0 -55 4 -55 9 0 12 51 131 56 131 3 0 15 -25
29 -56z"/>
<path d="M478 1536 c-137 -37 -238 -183 -238 -346 0 -119 19 -131 123 -79 101
51 194 117 218 155 12 20 28 66 36 102 17 80 26 92 72 92 37 0 133 -39 145
-59 12 -19 46 -13 46 8 0 39 -117 97 -252 125 -90 19 -88 19 -150 2z m0 -98
c-100 -100 -175 -224 -133 -223 6 0 40 39 77 85 64 81 133 150 149 150 9 0 1
-72 -12 -117 -15 -48 -79 -106 -170 -153 -102 -53 -114 -50 -105 31 12 116 78
219 169 263 88 43 95 33 25 -36z"/>
<path d="M1118 1250 c-80 -24 -217 -109 -266 -164 -116 -132 -53 -410 113
-497 44 -23 47 -23 60 -6 29 40 59 180 59 283 1 100 0 103 -32 145 -52 70 -64
97 -53 117 10 19 100 72 121 72 24 0 80 32 80 46 0 15 -38 17 -82 4z m-218
-315 c12 -132 22 -180 44 -210 29 -40 34 -3 15 110 -24 146 -25 208 -2 203 9
-2 32 -23 51 -48 l34 -45 -5 -100 c-5 -104 -29 -192 -54 -202 -21 -8 -80 53
-111 117 -35 70 -38 190 -8 258 11 23 20 41 22 40 1 -2 7 -57 14 -123z"/>
<path d="M10815 1078 c-41 -117 -145 -423 -145 -428 0 -4 10 -5 23 -3 19 4 32
33 95 216 39 117 72 215 72 220 0 12 -40 8 -45 -5z"/>
<path d="M7950 1019 c-14 -6 -36 -20 -48 -32 -78 -72 -69 -195 19 -260 50 -36
149 -33 202 7 15 12 16 18 8 35 l-11 20 -41 -21 c-101 -53 -209 41 -166 145
27 63 110 86 173 48 30 -18 31 -18 42 0 17 26 17 26 -28 49 -42 21 -108 25
-150 9z"/>
<path d="M8380 865 l0 -165 30 0 c29 0 30 1 30 50 l0 50 44 0 c42 0 45 -2 76
-50 27 -41 37 -50 62 -50 32 0 32 -1 -13 66 l-28 41 29 28 c36 34 45 83 26
130 -21 49 -63 65 -171 65 l-85 0 0 -165z m188 99 c15 -10 22 -25 22 -49 0
-46 -29 -65 -97 -65 l-53 0 0 65 0 65 53 0 c31 0 61 -6 75 -16z"/>
<path d="M8900 865 l0 -165 30 0 c29 0 30 1 30 50 l0 50 55 0 c95 0 145 40
145 118 0 87 -39 112 -175 112 l-85 0 0 -165z m188 99 c25 -17 29 -60 8 -89
-10 -13 -30 -20 -75 -23 l-61 -4 0 66 0 66 53 0 c31 0 61 -6 75 -16z"/>
<path d="M9800 1013 c-36 -25 -48 -43 -60 -95 -16 -66 1 -146 40 -183 23 -22
41 -29 82 -32 99 -8 148 49 148 170 0 71 -24 121 -70 144 -36 18 -111 16 -140
-4z m125 -47 c41 -41 42 -171 1 -205 -30 -25 -72 -24 -102 2 -27 24 -29 30
-29 102 0 72 2 78 28 101 36 30 71 31 102 0z"/>
<path d="M10286 926 c-31 -57 -56 -113 -56 -125 0 -20 5 -21 80 -21 l80 0 0
-40 c0 -36 3 -40 25 -40 23 0 25 4 25 40 0 36 3 40 25 40 20 0 25 5 25 25 0
20 -5 25 -25 25 -22 0 -25 4 -25 40 0 36 -2 40 -25 40 -22 0 -25 -4 -25 -40
l0 -40 -51 0 -51 0 51 94 c28 52 51 97 51 100 0 3 -11 6 -24 6 -21 0 -33 -16
-80 -104z"/>
<path d="M11104 1011 c-78 -48 -87 -221 -14 -286 34 -31 130 -28 164 4 47 44
43 131 -8 166 -27 20 -101 19 -131 -1 -29 -19 -32 -9 -11 40 18 44 64 63 114
48 32 -10 39 -9 50 5 10 15 9 19 -10 30 -35 19 -118 16 -154 -6z m110 -157
c23 -22 21 -81 -3 -94 -72 -38 -146 35 -91 90 24 24 72 26 94 4z"/>
<path d="M11581 1017 c-45 -23 -65 -62 -69 -135 -7 -125 43 -187 146 -179 67
5 106 39 122 108 21 85 -5 170 -60 203 -33 19 -105 21 -139 3z m116 -51 c26
-23 28 -29 28 -100 0 -91 -20 -120 -81 -120 -46 0 -69 26 -78 88 -18 119 57
195 131 132z"/>
<path d="M12057 919 c-32 -60 -56 -117 -53 -125 4 -10 24 -14 81 -14 l75 0 0
-40 c0 -36 3 -40 25 -40 23 0 25 4 25 40 0 36 3 40 25 40 34 0 37 47 3 52 -19
2 -24 10 -26 41 -3 32 -7 37 -28 37 -21 0 -24 -4 -24 -40 l0 -40 -45 0 c-25 0
-45 3 -45 7 0 3 23 48 50 100 l51 93 -28 0 c-25 0 -33 -11 -86 -111z"/>
<path d="M12544 1011 c-43 -26 -64 -76 -64 -154 0 -71 24 -120 70 -145 33 -17
115 -10 140 13 45 40 43 138 -3 170 -28 20 -106 19 -135 -1 -20 -14 -22 -14
-22 3 0 10 9 32 20 50 22 37 69 51 114 33 28 -10 45 -2 46 22 1 31 -119 38
-166 9z m108 -158 c22 -20 24 -66 2 -87 -20 -21 -73 -20 -96 1 -10 9 -18 29
-18 44 0 51 72 78 112 42z"/>
<path d="M12960 945 l0 -85 56 0 c30 0 64 -5 75 -10 23 -13 26 -62 3 -84 -20
-21 -83 -20 -113 0 -19 14 -25 14 -32 3 -15 -24 -5 -42 31 -55 73 -26 139 -13
177 36 15 19 17 84 3 111 -15 27 -63 49 -110 49 -39 0 -40 1 -40 35 l0 35 75
0 c73 0 75 1 75 25 l0 25 -100 0 -100 0 0 -85z"/>
<path d="M9380 845 c0 -12 13 -15 60 -15 47 0 60 3 60 15 0 12 -13 15 -60 15
-47 0 -60 -3 -60 -15z"/>
<path d="M1662 590 c0 -14 2 -19 5 -12 2 6 2 18 0 25 -3 6 -5 1 -5 -13z"/>
<path d="M1692 540 c0 -14 2 -19 5 -12 2 6 2 18 0 25 -3 6 -5 1 -5 -13z"/>
<path d="M1652 470 c0 -14 2 -19 5 -12 2 6 2 18 0 25 -3 6 -5 1 -5 -13z"/>
<path d="M1661 304 c0 -11 3 -14 6 -6 3 7 2 16 -1 19 -3 4 -6 -2 -5 -13z"/>
</g>
</svg>
