<?xml version="1.0" standalone="no"?>
<!DOCTYPE svg PUBLIC "-//W3C//DTD SVG 20010904//EN"
 "http://www.w3.org/TR/2001/REC-SVG-20010904/DTD/svg10.dtd">
<svg version="1.0" xmlns="http://www.w3.org/2000/svg"
 width="244.000000pt" height="258.000000pt" viewBox="0 0 244.000000 258.000000"
 preserveAspectRatio="xMidYMid meet">

<g transform="translate(0.000000,258.000000) scale(0.100000,-0.100000)"
fill="#B3365B" stroke="none">
<path d="M210 2530 c0 -41 5 -56 25 -75 13 -14 31 -25 39 -25 9 0 21 -9 28
-20 19 -29 43 -27 27 3 -7 12 -12 35 -11 51 4 46 -7 64 -52 91 -24 14 -46 25
-49 25 -4 0 -7 -23 -7 -50z m64 -11 c28 -22 33 -59 9 -66 -18 -6 -53 34 -53
62 0 31 9 31 44 4z"/>
<path d="M580 2520 c0 -41 5 -56 25 -75 13 -14 31 -25 39 -25 9 0 23 -11 32
-25 18 -28 40 -24 24 5 -5 10 -10 36 -10 57 0 22 -6 46 -12 54 -12 14 -83 59
-94 59 -2 0 -4 -23 -4 -50z m64 -11 c15 -12 26 -30 26 -45 0 -47 -56 -19 -66
34 -8 38 2 40 40 11z"/>
<path d="M906 2552 c-9 -9 -7 -69 4 -97 6 -15 24 -32 44 -40 19 -8 42 -25 50
-37 20 -28 33 -15 16 16 -7 14 -10 34 -7 46 9 36 -9 66 -57 93 -24 14 -47 22
-50 19z m76 -66 c13 -19 9 -56 -6 -56 -24 0 -46 30 -46 61 0 28 2 29 23 18 12
-7 25 -17 29 -23z"/>
<path d="M810 2250 c0 -6 18 -17 40 -26 44 -18 88 -63 94 -97 16 -86 24 -124
31 -139 6 -15 -5 -12 -57 12 -67 31 -202 65 -219 55 -19 -13 -9 -35 17 -35 38
0 142 -29 188 -52 105 -52 184 -148 210 -253 8 -33 22 -134 31 -225 40 -395
101 -615 219 -789 l36 -53 0 -293 c0 -306 4 -355 26 -355 11 0 12 36 7 202 -3
112 -3 247 2 301 l7 97 46 -38 c71 -59 128 -92 217 -124 136 -50 237 -36 318
46 32 32 67 111 67 153 0 7 15 19 33 26 42 18 57 37 64 83 4 21 16 46 27 55
15 12 22 33 26 75 4 42 9 59 20 61 110 14 115 16 147 48 18 18 33 43 33 55 0
12 -23 72 -50 135 -51 113 -80 217 -80 287 0 29 10 49 46 94 73 90 74 92 71
348 -2 124 -6 228 -10 232 -18 19 -27 -66 -27 -260 0 -237 8 -206 -79 -318
-33 -43 -33 -43 -28 -133 5 -95 32 -185 88 -297 16 -32 29 -68 29 -82 0 -66
-121 -89 -216 -41 -30 15 -52 21 -58 15 -13 -13 10 -37 50 -52 32 -11 34 -15
34 -59 0 -61 -7 -77 -39 -93 -23 -12 -35 -11 -101 10 -85 27 -128 34 -130 19
-2 -11 43 -29 143 -55 38 -10 71 -21 74 -23 2 -3 -3 -19 -11 -36 -12 -22 -27
-33 -56 -41 -38 -10 -40 -13 -40 -51 0 -56 -20 -98 -68 -141 -64 -58 -128 -70
-223 -42 -117 35 -297 151 -314 203 -8 26 11 103 40 166 36 75 94 137 191 201
94 62 103 71 79 80 -11 4 -48 -15 -106 -54 -49 -33 -89 -57 -89 -54 0 4 7 30
16 57 8 28 28 106 44 174 35 148 58 186 152 249 37 24 65 49 62 54 -7 11 -63
-22 -127 -75 -46 -37 -48 -38 -41 -13 5 21 3 26 -13 26 -17 0 -22 -12 -33 -72
-13 -72 -13 -73 -29 -48 -30 48 -81 89 -136 109 -66 25 -85 26 -85 7 0 -8 21
-21 49 -31 59 -19 129 -77 147 -122 8 -18 14 -49 14 -70 0 -55 -46 -213 -92
-317 -22 -50 -49 -119 -60 -154 -25 -78 -30 -75 -97 61 -55 112 -81 197 -111
361 -45 249 -20 315 153 403 67 33 74 35 126 26 91 -14 134 0 183 59 62 74 91
104 108 110 30 11 1 18 -93 25 -78 5 -105 3 -141 -11 -54 -21 -93 -63 -102
-112 -4 -24 -15 -39 -35 -49 -39 -21 -39 -20 -18 22 22 44 25 93 5 93 -8 0
-18 -19 -25 -46 -9 -34 -24 -56 -58 -87 -26 -23 -68 -63 -95 -89 l-47 -47 -5
32 c-22 147 -11 317 30 431 40 115 39 108 18 104 -23 -4 -60 -91 -75 -176 -6
-31 -13 -63 -15 -70 -4 -15 -102 115 -134 179 -26 51 -26 139 0 198 22 48 24
61 11 61 -5 0 -17 -20 -27 -46 l-17 -45 -36 35 c-20 19 -53 42 -73 51 -44 18
-48 18 -48 5z m907 -456 c22 -6 21 -8 -23 -65 -25 -33 -58 -66 -74 -74 -31
-16 -115 -20 -124 -6 -3 4 22 20 54 34 33 14 60 30 60 36 0 15 -2 15 -76 -19
-64 -29 -65 -29 -58 -7 13 42 38 70 79 88 39 18 119 24 162 13z"/>
<path d="M388 2153 c4 -68 25 -102 70 -117 18 -6 44 -25 58 -41 25 -29 25 -29
19 -5 -4 14 -10 52 -14 85 -3 33 -10 66 -14 73 -9 13 -99 62 -115 62 -5 0 -7
-26 -4 -57z m90 -16 c30 -28 31 -87 2 -87 -36 0 -70 44 -70 90 0 39 1 40 23
29 12 -6 32 -21 45 -32z"/>
<path d="M148 1875 c-24 -16 -51 -25 -77 -25 -90 0 -97 -32 -11 -50 33 -7 60
-18 60 -24 0 -6 -9 -35 -21 -65 -24 -65 -19 -117 17 -156 13 -14 24 -30 24
-36 0 -13 17 -11 75 6 161 49 259 41 355 -32 33 -25 83 -57 111 -73 l51 -28
-58 -7 c-33 -4 -106 -21 -164 -38 -80 -25 -106 -36 -108 -51 -3 -14 0 -18 14
-14 11 3 59 18 108 32 312 92 517 34 593 -170 37 -98 43 -140 49 -359 8 -243
-5 -445 -41 -640 -23 -122 -22 -162 3 -133 13 17 47 193 63 328 14 128 14 580
0 670 -15 90 -174 514 -195 518 -22 5 -21 -2 19 -112 19 -53 35 -99 35 -102 0
-2 -17 7 -37 20 -21 13 -65 32 -98 41 -115 32 -130 37 -200 70 -99 47 -162
105 -197 184 -22 48 -32 61 -41 52 -9 -9 -8 -23 5 -57 16 -46 16 -46 -5 -40
-12 3 -50 6 -84 6 l-62 0 5 28 c4 19 -4 45 -25 86 -22 42 -31 72 -31 107 0 45
-3 51 -32 69 -43 26 -56 25 -100 -5z m86 -31 c10 -9 16 -33 16 -62 1 -32 9
-60 25 -87 47 -77 26 -118 -67 -131 -39 -5 -48 -3 -67 17 -27 29 -27 76 0 139
14 33 19 59 15 76 -13 49 43 83 78 48z"/>
<path d="M325 1061 c-81 -36 -146 -141 -147 -235 -1 -65 9 -96 29 -96 27 0
170 80 207 116 23 22 37 47 42 72 15 90 18 97 51 100 31 3 105 -27 118 -48 10
-17 35 -11 35 8 0 37 -164 102 -256 102 -22 0 -57 -9 -79 -19z m47 -47 c-51
-43 -136 -159 -127 -174 12 -19 22 -10 72 58 28 38 65 79 83 92 l33 24 -6 -54
c-8 -67 -41 -104 -139 -155 -78 -41 -85 -37 -74 42 11 84 71 163 143 188 59
22 62 18 15 -21z"/>
<path d="M824 856 c-51 -16 -151 -76 -181 -108 -76 -81 -68 -234 17 -331 37
-42 95 -75 103 -59 24 42 51 158 52 218 0 67 -2 74 -37 119 -21 27 -38 54 -38
61 0 19 48 53 94 66 48 13 68 27 60 39 -7 12 -20 11 -70 -5z m-135 -353 c7
-28 18 -43 28 -43 12 0 14 7 9 33 -21 122 -29 186 -22 203 7 17 11 15 42 -20
30 -35 34 -46 34 -96 0 -56 -23 -156 -41 -174 -13 -14 -64 39 -90 93 -28 59
-29 143 -3 191 l19 35 6 -90 c3 -49 11 -109 18 -132z"/>
<path d="M1252 440 c0 -14 2 -19 5 -12 2 6 2 18 0 25 -3 6 -5 1 -5 -13z"/>
<path d="M1243 370 c0 -25 2 -35 4 -22 2 12 2 32 0 45 -2 12 -4 2 -4 -23z"/>
<path d="M1263 330 c0 -25 2 -35 4 -22 2 12 2 32 0 45 -2 12 -4 2 -4 -23z"/>
<path d="M1233 280 c0 -25 2 -35 4 -22 2 12 2 32 0 45 -2 12 -4 2 -4 -23z"/>
<path d="M1253 240 c0 -25 2 -35 4 -22 2 12 2 32 0 45 -2 12 -4 2 -4 -23z"/>
<path d="M1242 160 c0 -14 2 -19 5 -12 2 6 2 18 0 25 -3 6 -5 1 -5 -13z"/>
</g>
</svg>
