<svg width="193" height="193" viewBox="0 0 193 193" fill="none" xmlns="http://www.w3.org/2000/svg">
<path d="M161.568 86.2657C161.391 65.9255 152.818 46.3145 137.983 32.3673C122.785 18.0796 102.876 10.9328 81.9826 12.2144C43.5346 14.5892 12.7563 46.6632 11.9117 85.235C11.4782 105.074 18.7652 123.932 32.4286 138.335C42.5392 148.99 48.1063 163.261 48.1063 178.52C48.1063 179.853 49.1865 180.933 50.5188 180.933H127.742C129.075 180.933 130.155 179.853 130.155 178.52V153.592H150.752C156.717 153.592 161.57 148.739 161.57 142.773V123.767H178.693C179.552 123.767 180.346 123.311 180.778 122.569C181.211 121.827 181.216 120.911 180.791 120.164L161.568 86.2657ZM159.158 118.942C157.826 118.942 156.745 120.022 156.745 121.354V142.773C156.745 146.079 154.057 148.767 150.752 148.767H127.742C126.41 148.767 125.33 149.847 125.33 151.179V176.108H52.8877C52.3294 160.518 46.357 146.005 35.9295 135.013C23.1461 121.54 16.3303 103.9 16.7367 85.341C17.5248 49.2571 46.3158 19.2517 82.2795 17.03C101.849 15.8202 120.461 22.517 134.678 35.8824C148.908 49.2618 156.745 67.3815 156.745 86.9065C156.745 87.3235 156.854 87.7334 157.06 88.0963L174.552 118.942H159.158V118.942Z" fill="black"/>
<path d="M87.0903 46.7528C59.3018 46.7528 36.694 62.2739 36.694 81.3512C36.694 91.4594 42.9644 100.914 53.9538 107.466L53.7794 126.926C53.7712 127.83 54.2695 128.662 55.0693 129.083C55.4227 129.268 55.8079 129.36 56.1919 129.36C56.6796 129.36 57.1638 129.212 57.5784 128.922L77.0386 115.261C80.258 115.718 83.6341 115.948 87.0903 115.948C114.893 115.948 137.513 100.429 137.513 81.3512C137.513 62.2739 114.893 46.7528 87.0903 46.7528ZM87.0903 111.123C83.5352 111.123 80.079 110.863 76.8172 110.348C76.2023 110.253 75.5673 110.398 75.0549 110.757L58.6468 122.277L58.7917 106.102C58.8 105.221 58.3253 104.404 57.556 103.974C47.3642 98.2823 41.519 90.0364 41.519 81.3512C41.519 64.9337 61.9617 51.5778 87.0903 51.5778C112.233 51.5778 132.688 64.9337 132.688 81.3512C132.688 97.7675 112.233 111.123 87.0903 111.123Z" fill="black"/>
<path d="M111.831 72.9781C106.843 72.9781 102.785 77.0363 102.785 82.025C102.785 87.0138 106.843 91.0719 111.831 91.0719C116.82 91.0719 120.878 87.0138 120.878 82.025C120.878 77.0363 116.82 72.9781 111.831 72.9781ZM111.831 86.2469C109.504 86.2469 107.61 84.3527 107.61 82.025C107.61 79.6973 109.504 77.8031 111.831 77.8031C114.159 77.8031 116.053 79.6973 116.053 82.025C116.053 84.3527 114.159 86.2469 111.831 86.2469ZM87.1033 72.9781C82.1145 72.9781 78.0564 77.0363 78.0564 82.025C78.0564 87.0138 82.1145 91.0719 87.1033 91.0719C92.092 91.0719 96.1501 87.0138 96.1501 82.025C96.1501 77.0363 92.092 72.9781 87.1033 72.9781ZM87.1033 86.2469C84.7756 86.2469 82.8814 84.3527 82.8814 82.025C82.8814 79.6973 84.7756 77.8031 87.1033 77.8031C89.431 77.8031 91.3251 79.6973 91.3251 82.025C91.3251 84.3527 89.4309 86.2469 87.1033 86.2469ZM62.3751 72.9781C57.3864 72.9781 53.3283 77.0363 53.3283 82.025C53.3283 87.0138 57.3864 91.0719 62.3751 91.0719C67.3639 91.0719 71.422 87.0138 71.422 82.025C71.422 77.0363 67.3639 72.9781 62.3751 72.9781ZM62.3751 86.2469C60.0475 86.2469 58.1533 84.3527 58.1533 82.025C58.1533 79.6973 60.0475 77.8031 62.3751 77.8031C64.7028 77.8031 66.597 79.6973 66.597 82.025C66.597 84.3527 64.7028 86.2469 62.3751 86.2469Z" fill="black"/>
</svg>
