<svg width="32" height="32" viewBox="0 0 32 32" fill="none" xmlns="http://www.w3.org/2000/svg">
<path d="M26.3601 10.9992H22.5101C22.2566 10.9985 22.0123 11.0942 21.8266 11.2669C21.641 11.4395 21.5278 11.6763 21.5101 11.9292L21.0001 19.0992C20.9752 19.3467 20.859 19.576 20.6741 19.7425C20.4892 19.9089 20.2489 20.0004 20.0001 19.9992H12.0001C11.7529 20.0007 11.5139 19.9105 11.3292 19.7462C11.1445 19.5818 11.0273 19.3549 11.0001 19.1092L10.5001 11.9292C10.4862 11.8402 10.4627 11.7531 10.4301 11.6692L10.2101 8.09916C10.1958 7.96048 10.2106 7.82033 10.2537 7.68773C10.2967 7.55512 10.367 7.43299 10.4601 7.32916C10.5547 7.22431 10.6705 7.14069 10.7997 7.08381C10.929 7.02694 11.0689 6.99808 11.2101 6.99916H20.7901C21.0553 6.99916 21.3097 7.10452 21.4972 7.29205C21.6847 7.47959 21.7901 7.73394 21.7901 7.99916C21.7901 8.26438 21.8954 8.51873 22.083 8.70627C22.2705 8.8938 22.5249 8.99916 22.7901 8.99916C23.0553 8.99916 23.3097 8.8938 23.4972 8.70627C23.6847 8.51873 23.7901 8.26438 23.7901 7.99916C23.7591 7.22449 23.4294 6.49191 22.8701 5.955C22.3108 5.41808 21.5654 5.11854 20.7901 5.11916H11.2101C10.7942 5.11771 10.3825 5.20276 10.0012 5.36891C9.61992 5.53506 9.27735 5.77868 8.99524 6.0843C8.71313 6.38992 8.49765 6.75086 8.36249 7.1442C8.22732 7.53754 8.17542 7.95469 8.21008 8.36916L8.48008 13.1992L9.00008 19.2892C9.0474 19.784 9.21942 20.2588 9.50008 20.6692C9.05677 20.7862 8.644 20.9977 8.29008 21.2892C8.19291 21.3778 8.11414 21.4847 8.05828 21.6038C8.00242 21.7229 7.97056 21.8518 7.96453 21.9832C7.95849 22.1146 7.9784 22.2459 8.0231 22.3696C8.06781 22.4933 8.13644 22.607 8.22508 22.7042C8.31373 22.8013 8.42064 22.8801 8.53972 22.936C8.65881 22.9918 8.78773 23.0237 8.91912 23.0297C9.05052 23.0358 9.18181 23.0158 9.30552 22.9711C9.42922 22.9264 9.54291 22.8578 9.64008 22.7692C9.77008 22.6892 11.0001 21.9992 16.0001 21.9992C21.0001 21.9992 22.2301 22.6892 22.3601 22.7692C22.5518 22.9298 22.7968 23.0128 23.0468 23.0017C23.2967 22.9906 23.5333 22.8862 23.7101 22.7092C23.8038 22.6162 23.8782 22.5056 23.929 22.3837C23.9797 22.2619 24.0059 22.1312 24.0059 21.9992C24.0059 21.8671 23.9797 21.7364 23.929 21.6146C23.8782 21.4927 23.8038 21.3821 23.7101 21.2892C23.3534 20.9961 22.937 20.7845 22.4901 20.6692C22.7795 20.2551 22.9554 19.7724 23.0001 19.2692V19.2692L23.5101 13.0692V12.9992H26.3601C26.7503 12.9821 27.1332 13.1092 27.4356 13.3564C27.7381 13.6035 27.939 13.9534 28.0001 14.3392C28.0243 14.55 28.003 14.7636 27.9374 14.9655C27.8718 15.1674 27.7636 15.3528 27.6201 15.5092C27.4779 15.6644 27.3048 15.7882 27.1119 15.8726C26.919 15.957 26.7106 16.0001 26.5001 15.9992C26.4204 16.0099 26.3397 16.0099 26.2601 15.9992C26.1181 15.9685 25.9712 15.9691 25.8295 16.001C25.6878 16.0329 25.5547 16.0952 25.4396 16.1838C25.3244 16.2723 25.2299 16.3848 25.1627 16.5135C25.0954 16.6422 25.057 16.7841 25.0501 16.9292L24.6701 24.0992C24.6499 24.3503 24.5357 24.5845 24.3503 24.7551C24.1649 24.9257 23.922 25.02 23.6701 25.0192H8.33008C8.08593 25.0212 7.84945 24.9339 7.66524 24.7736C7.48103 24.6134 7.36182 24.3913 7.33008 24.1492L7.13008 20.4692L7.00008 16.9092C6.99236 16.765 6.9535 16.6242 6.88617 16.4964C6.81885 16.3687 6.72466 16.257 6.61008 16.1692C6.48789 16.0759 6.34584 16.012 6.19495 15.9825C6.04406 15.953 5.88841 15.9587 5.74008 15.9992C5.66044 16.0099 5.57972 16.0099 5.50008 15.9992C5.29124 15.9987 5.08476 15.9549 4.8937 15.8706C4.70264 15.7862 4.53116 15.6632 4.39008 15.5092C4.24477 15.3537 4.13471 15.1686 4.06741 14.9667C4.0001 14.7648 3.97714 14.5508 4.00008 14.3392C4.06112 13.9534 4.26204 13.6035 4.56452 13.3564C4.86699 13.1092 5.24985 12.9821 5.64008 12.9992C5.9053 12.9992 6.15965 12.8938 6.34719 12.7063C6.53473 12.5187 6.64008 12.2644 6.64008 11.9992C6.64008 11.7339 6.53473 11.4796 6.34719 11.2921C6.15965 11.1045 5.9053 10.9992 5.64008 10.9992C4.75365 10.9843 3.89272 11.2961 3.22142 11.8752C2.55012 12.4543 2.11538 13.2601 2.00008 14.1392C1.9504 14.6272 2.00299 15.1203 2.15451 15.5869C2.30603 16.0535 2.55314 16.4834 2.88008 16.8492C3.42652 17.4736 4.17864 17.8816 5.00008 17.9992L5.14008 20.5892L5.33008 24.3092C5.40002 25.0553 5.74671 25.7483 6.30192 26.2517C6.85713 26.7551 7.58065 27.0324 8.33008 27.0292H23.6701C24.4274 27.0314 25.1576 26.7471 25.7141 26.2333C26.2705 25.7195 26.612 25.0143 26.6701 24.2592L27.0001 17.9992C27.8089 17.8877 28.5525 17.4947 29.1001 16.8892C29.4359 16.5204 29.6897 16.0846 29.8448 15.6106C29.9999 15.1366 30.0529 14.6351 30.0001 14.1392C29.8848 13.2601 29.45 12.4543 28.7787 11.8752C28.1074 11.2961 27.2465 10.9843 26.3601 10.9992V10.9992ZM12.0001 27.9992H9.00008C8.73487 27.9992 8.48051 28.1045 8.29298 28.2921C8.10544 28.4796 8.00008 28.7339 8.00008 28.9992C8.00008 29.2644 8.10544 29.5187 8.29298 29.7063C8.48051 29.8938 8.73487 29.9992 9.00008 29.9992H12.0001C12.2653 29.9992 12.5197 29.8938 12.7072 29.7063C12.8947 29.5187 13.0001 29.2644 13.0001 28.9992C13.0001 28.7339 12.8947 28.4796 12.7072 28.2921C12.5197 28.1045 12.2653 27.9992 12.0001 27.9992ZM23.0001 27.9992H20.0001C19.7349 27.9992 19.4805 28.1045 19.293 28.2921C19.1054 28.4796 19.0001 28.7339 19.0001 28.9992C19.0001 29.2644 19.1054 29.5187 19.293 29.7063C19.4805 29.8938 19.7349 29.9992 20.0001 29.9992H23.0001C23.2653 29.9992 23.5197 29.8938 23.7072 29.7063C23.8947 29.5187 24.0001 29.2644 24.0001 28.9992C24.0001 28.7339 23.8947 28.4796 23.7072 28.2921C23.5197 28.1045 23.2653 27.9992 23.0001 27.9992Z" fill="black"/>
<path d="M14.38 10.0794C14.199 9.9955 13.997 9.96764 13.8 9.99943L13.62 10.0594L13.44 10.1494L13.29 10.2694C13.199 10.3645 13.1276 10.4767 13.08 10.5994C13.0262 10.7259 12.9989 10.862 13 10.9994C12.9993 11.131 13.0245 11.2615 13.0743 11.3833C13.124 11.5052 13.1974 11.616 13.29 11.7094L13.44 11.8294L13.62 11.9194L13.8 11.9794H14C14.1307 11.9779 14.2598 11.9507 14.38 11.8994C14.5028 11.8518 14.6149 11.7805 14.71 11.6894C14.8038 11.5965 14.8782 11.4859 14.9289 11.364C14.9797 11.2422 15.0058 11.1114 15.0058 10.9794C15.0058 10.8474 14.9797 10.7167 14.9289 10.5949C14.8782 10.473 14.8038 10.3624 14.71 10.2694C14.6132 10.1855 14.5012 10.121 14.38 10.0794V10.0794ZM17.8 9.99943C17.7374 10.0104 17.6767 10.0306 17.62 10.0594C17.5563 10.0813 17.4958 10.1116 17.44 10.1494L17.29 10.2694C17.199 10.3645 17.1276 10.4767 17.08 10.5994C17.0271 10.7191 16.9998 10.8486 16.9998 10.9794C16.9998 11.1103 17.0271 11.2397 17.08 11.3594C17.1258 11.4831 17.1974 11.5956 17.29 11.6894L17.44 11.8094C17.4958 11.8473 17.5563 11.8775 17.62 11.8994C17.6767 11.9283 17.7374 11.9485 17.8 11.9594H18C18.2648 11.9558 18.5184 11.8522 18.71 11.6694C18.8011 11.5743 18.8724 11.4622 18.92 11.3394C18.9729 11.2197 19.0003 11.0903 19.0003 10.9594C19.0003 10.8286 18.9729 10.6991 18.92 10.5794C18.8694 10.4582 18.7984 10.3466 18.71 10.2494C18.5906 10.1361 18.4451 10.0539 18.2864 10.0103C18.1276 9.96672 17.9606 9.96298 17.8 9.99943V9.99943ZM15.62 15.9194C15.7403 15.9707 15.8694 15.9979 16 15.9994H16.2C16.2627 15.9885 16.3233 15.9683 16.38 15.9394C16.4438 15.9175 16.5043 15.8873 16.56 15.8494L16.71 15.7294C16.8975 15.5328 17.0015 15.2711 17 14.9994C17.0034 14.8683 16.976 14.7381 16.92 14.6194C16.8742 14.4958 16.8026 14.3833 16.71 14.2894C16.5694 14.1507 16.3908 14.0567 16.1968 14.0193C16.0029 13.9819 15.8021 14.0029 15.62 14.0794C15.4964 14.1252 15.3839 14.1968 15.29 14.2894C15.1963 14.3824 15.1219 14.493 15.0711 14.6149C15.0204 14.7367 14.9942 14.8674 14.9942 14.9994C14.9942 15.1314 15.0204 15.2622 15.0711 15.384C15.1219 15.5059 15.1963 15.6165 15.29 15.7094C15.3851 15.8005 15.4973 15.8718 15.62 15.9194Z" fill="black"/>
</svg>
