<svg width="32" height="32" viewBox="0 0 32 32" fill="none" xmlns="http://www.w3.org/2000/svg">
<path d="M23.8125 4.91104C23.0193 4.87854 22.2131 5.12568 21.5488 5.63955C20.2164 4.61828 18.3194 4.66576 17.1016 5.88369H17.0996V5.88565C15.7791 7.20612 15.7856 9.35321 17.1113 10.6689L19.1641 12.704L21.2148 14.7392C21.3088 14.832 21.4357 14.884 21.5678 14.8836C21.6999 14.8832 21.8265 14.8306 21.9199 14.7372L23.9629 12.6942L26.0059 10.6513C27.3184 9.3387 27.3637 7.22336 26.0391 5.90713L26.0117 5.87784C26.0066 5.87251 26.0014 5.8673 25.9961 5.86221C25.3848 5.25601 24.6057 4.94354 23.8125 4.91104ZM23.5957 5.87002C24.2066 5.86839 24.818 6.10281 25.291 6.57119L25.3125 6.59659C25.3182 6.60193 25.3241 6.60714 25.3301 6.61221C26.2766 7.55054 26.247 8.99214 25.2969 9.94229L23.2539 11.9853L21.5625 13.6767L19.8652 11.9931L17.8145 9.95791C16.868 9.01965 16.8646 7.53086 17.8066 6.58877L17.8086 6.59073C18.7509 5.64732 20.2512 5.64478 21.1973 6.58291C21.2913 6.67639 21.4186 6.72869 21.5512 6.72833C21.6838 6.72796 21.8108 6.67495 21.9043 6.58096C22.3752 6.10939 22.9848 5.87166 23.5957 5.87002ZM19.0332 7.12002C18.6032 7.12104 18.3228 7.45182 18.2031 7.78018C18.0833 8.10913 18.0833 8.4571 18.2031 8.78604C18.2255 8.84795 18.2599 8.90483 18.3044 8.95341C18.3488 9.002 18.4024 9.04134 18.462 9.06917C18.5217 9.097 18.5863 9.11277 18.6521 9.11559C18.7178 9.11841 18.7835 9.10822 18.8454 9.0856C18.9072 9.06297 18.9639 9.02836 19.0124 8.98376C19.0608 8.93915 19.0999 8.88542 19.1275 8.82566C19.1552 8.76589 19.1707 8.70126 19.1733 8.63547C19.1759 8.56968 19.1654 8.50403 19.1426 8.44229C19.1131 8.36146 19.1132 8.20469 19.1426 8.12393C19.1499 8.10402 19.1428 8.11255 19.1445 8.1083C19.2649 8.08165 19.3713 8.01145 19.443 7.91118C19.5148 7.8109 19.547 7.68764 19.5335 7.56507C19.5199 7.44249 19.4615 7.32925 19.3696 7.24711C19.2776 7.16496 19.1585 7.1197 19.0352 7.12002H19.0332ZM1.5 14.0009C1.3674 14.0009 1.24023 14.0536 1.14646 14.1473C1.0527 14.2411 1.00001 14.3683 1 14.5009V24.5009C1.00001 24.6335 1.0527 24.7607 1.14646 24.8544C1.24023 24.9482 1.3674 25.0009 1.5 25.0009H4H6.5C6.6326 25.0009 6.75977 24.9482 6.85354 24.8544C6.9473 24.7607 6.99999 24.6335 7 24.5009V23.5165L17.0801 26.8622C17.091 26.8658 17.1021 26.8691 17.1133 26.872C18.1863 27.1442 19.421 26.9849 20.3652 26.3681L30.0762 21.0907C30.0781 21.0888 30.0801 21.0868 30.082 21.0849L30.3184 20.9501C30.3184 20.9495 30.3184 20.9488 30.3184 20.9481C31.1256 20.4916 31.4736 19.4995 31.1133 18.6474C30.8067 17.922 30.2037 17.5892 29.7324 17.5204C29.2611 17.4515 28.875 17.5849 28.875 17.5849C28.8571 17.5904 28.8395 17.5969 28.8223 17.6044L23.4961 20.0771C23.5027 20.0112 23.5176 19.9473 23.5176 19.8798C23.5176 18.7564 22.5869 17.8427 21.459 17.8427H17.0195C17.0006 17.8093 16.9787 17.7613 16.9609 17.7294C16.8817 17.5861 16.7956 17.4478 16.7031 17.3134C16.518 17.0445 16.3071 16.7955 16.0742 16.5673C15.1425 15.6544 13.8531 15.0927 12.4336 15.0927L7 15.0946V14.5009C6.99999 14.3683 6.9473 14.2411 6.85354 14.1473C6.75977 14.0536 6.6326 14.0009 6.5 14.0009H4H1.5ZM2 15.0009H2.99414V21.4931C2.99401 21.5589 3.00684 21.624 3.0319 21.6849C3.05696 21.7457 3.09375 21.801 3.14018 21.8476C3.23395 21.9417 3.36127 21.9948 3.49414 21.995C3.62701 21.9953 3.75454 21.9428 3.84867 21.849C3.94281 21.7552 3.99583 21.6279 3.99609 21.495L3.99414 15.0009H4H6V24.0009H4H2V15.0009ZM12.4316 16.0907C13.5883 16.0908 14.6238 16.5461 15.373 17.2802C15.5605 17.4638 15.7305 17.6643 15.8789 17.8798C15.9532 17.9878 16.0224 18.099 16.0859 18.2138C16.1643 18.3556 16.2175 18.4417 16.2598 18.5399L16.3887 18.8427H16.8281H21.459C22.058 18.8427 22.5176 19.2988 22.5176 19.8778C22.5176 20.3004 22.2678 20.6547 21.9023 20.8173L21.8555 20.8388C21.7328 20.8862 21.5999 20.9151 21.457 20.9149L14.5039 20.9169V21.9149H21.457C21.6586 21.915 21.8503 21.8773 22.0352 21.8231C22.1014 21.8171 22.1659 21.7978 22.2246 21.7665L22.2383 21.7606C22.257 21.753 22.2745 21.7434 22.293 21.7353L29.2012 18.5321C29.2059 18.5274 29.3755 18.4776 29.5859 18.5087C29.8006 18.5401 30.0047 18.5991 30.1895 19.036C30.3543 19.4259 30.2064 19.8628 29.8262 20.079L29.5918 20.2118L19.8828 25.4872C19.8701 25.4945 19.8577 25.5023 19.8457 25.5106C19.1873 25.9531 18.1636 26.1006 17.3633 25.8993L7.06055 22.4794C7.04071 22.4729 7.02049 22.4677 7 22.4638V16.0927L12.4316 16.0907Z" fill="black"/>
</svg>
