<svg width="32" height="32" viewBox="0 0 32 32" fill="none" xmlns="http://www.w3.org/2000/svg">
<path d="M16 1C11.648 1 8.10693 4.54102 8.10693 8.89307V13.3791C6.72564 13.6471 5.67871 14.8628 5.67871 16.3213V28C5.67871 29.6543 7.02441 31 8.67871 31H23.3213C24.9756 31 26.3213 29.6543 26.3213 28V16.3213C26.3213 14.8628 25.2744 13.6471 23.8931 13.3791V8.89307C23.8931 4.54102 20.3521 1 16 1ZM10.1069 8.89307C10.1069 5.64355 12.7505 3 16 3C19.2495 3 21.8931 5.64355 21.8931 8.89307V13.3213H10.1069V8.89307ZM24.3213 16.3213V28C24.3213 28.5513 23.8726 29 23.3213 29H8.67871C8.12744 29 7.67871 28.5513 7.67871 28V16.3213C7.67871 15.77 8.12744 15.3213 8.67871 15.3213H9.10693H22.8931H23.3213C23.8726 15.3213 24.3213 15.77 24.3213 16.3213Z" fill="black"/>
<path d="M16 17.7734C14.021 17.7734 12.4106 19.3838 12.4106 21.3628C12.4106 22.9924 13.5094 24.3561 15 24.7923V25.5503C15 26.1025 15.4478 26.5503 16 26.5503C16.5523 26.5503 17 26.1025 17 25.5503V24.7923C18.4906 24.3561 19.5894 22.9924 19.5894 21.3628C19.5894 19.3838 17.979 17.7734 16 17.7734ZM16 22.9517C15.1235 22.9517 14.4106 22.2388 14.4106 21.3628C14.4106 20.4863 15.1235 19.7734 16 19.7734C16.8765 19.7734 17.5894 20.4863 17.5894 21.3628C17.5894 22.2388 16.8765 22.9517 16 22.9517Z" fill="black"/>
</svg>
