<svg width="48" height="48" viewBox="0 0 48 48" fill="none" xmlns="http://www.w3.org/2000/svg">
<path d="M44 40.5448H42.352C42.789 39.9512 43.0254 39.2338 43.027 38.4967V29.7968C43.0309 28.361 42.5233 26.9707 41.5951 25.8752C40.6669 24.7798 39.3789 24.0507 37.962 23.8188L35.64 23.4318C35.2417 23.3653 34.8794 23.1611 34.6162 22.8548C34.353 22.5485 34.2057 22.1595 34.2 21.7558L34.172 20.0367C34.8052 19.7199 35.3381 19.2336 35.7113 18.6319C36.0845 18.0302 36.2835 17.3368 36.286 16.6288V11.7008C36.2813 10.5083 35.848 9.35732 35.0652 8.45778C34.2825 7.55825 33.2024 6.97013 32.022 6.80075L24.022 5.68375C23.9302 5.67197 23.8368 5.68593 23.7525 5.72407C23.6681 5.76221 23.5959 5.82303 23.5441 5.89976C23.4922 5.97649 23.4627 6.06611 23.4588 6.15863C23.4549 6.25115 23.4768 6.34293 23.522 6.42375L24.971 8.99375H23.472C23.3812 8.99361 23.292 9.01822 23.2141 9.06494C23.1362 9.11165 23.0725 9.17871 23.0298 9.2589C22.9872 9.33909 22.9672 9.42939 22.9719 9.5201C22.9767 9.6108 23.0061 9.69849 23.057 9.77375L25.757 13.7818V16.6298C25.7596 17.3283 25.9534 18.0128 26.3174 18.609C26.6814 19.2052 27.2018 19.6903 27.822 20.0118L27.8 21.7558C27.792 22.1592 27.6435 22.5473 27.3801 22.853C27.1167 23.1588 26.7549 23.3631 26.357 23.4308L24.041 23.8208C23.2179 23.9554 22.4316 24.259 21.7317 24.7125C21.0317 25.166 20.4332 25.7595 19.974 26.4558H9C8.92429 26.4557 8.84956 26.4729 8.78146 26.506C8.71336 26.5391 8.65365 26.5872 8.60685 26.6467C8.56005 26.7062 8.52737 26.7755 8.51129 26.8495C8.49521 26.9235 8.49613 27.0002 8.514 27.0738L11.785 40.5448H4C3.86739 40.5448 3.74021 40.5974 3.64645 40.6912C3.55268 40.785 3.5 40.9121 3.5 41.0448C3.5 41.1774 3.55268 41.3045 3.64645 41.3983C3.74021 41.4921 3.86739 41.5448 4 41.5448H12.028L12.128 41.9448C12.1546 42.0535 12.217 42.1502 12.3052 42.2192C12.3933 42.2883 12.502 42.3258 12.614 42.3258H39.166C39.2495 42.3258 39.3316 42.305 39.405 42.2652C39.4784 42.2254 39.5406 42.1678 39.586 42.0978C39.6025 42.0634 39.6146 42.0271 39.622 41.9897C40.1803 41.9725 40.7261 41.8205 41.213 41.5468H44C44.1326 41.5468 44.2598 41.4941 44.3536 41.4003C44.4473 41.3065 44.5 41.1794 44.5 41.0468C44.5 40.9141 44.4473 40.787 44.3536 40.6932C44.2598 40.5994 44.1326 40.5468 44 40.5468V40.5448ZM26.761 16.6288V13.6288C26.7591 13.6132 26.7561 13.5979 26.752 13.5828C26.7448 13.516 26.7251 13.4512 26.694 13.3918C26.686 13.3778 26.685 13.3618 26.676 13.3488L24.412 9.99275H25.526L25.593 10.1108C25.6593 10.2239 25.7674 10.3065 25.8941 10.3407C26.0207 10.3749 26.1557 10.358 26.2699 10.2935C26.3842 10.2291 26.4686 10.1224 26.5049 9.99637C26.5412 9.87033 26.5265 9.73507 26.464 9.61975L24.881 6.81275L31.881 7.78975C32.8226 7.92551 33.684 8.39519 34.3081 9.11313C34.9323 9.83108 35.2775 10.7494 35.281 11.7008V16.6288C35.2799 17.3808 34.9807 18.1016 34.4488 18.6333C33.917 19.1649 33.196 19.464 32.444 19.4648H29.6C28.8476 19.4648 28.1259 19.1661 27.5936 18.6343C27.0613 18.1025 26.7618 17.3812 26.761 16.6288V16.6288ZM24.2 24.8078L26.52 24.4178C27.1488 24.3114 27.7207 23.9888 28.1369 23.5057C28.5532 23.0226 28.7877 22.4093 28.8 21.7718L28.82 20.3858C29.0757 20.438 29.336 20.4645 29.597 20.4648H32.448C32.6928 20.4636 32.9369 20.4388 33.177 20.3907L33.199 21.7728C33.2091 22.41 33.4424 23.0235 33.8583 23.5065C34.2742 23.9894 34.8463 24.3112 35.475 24.4158L37.8 24.8008C38.9831 24.9947 40.0585 25.6035 40.8334 26.5183C41.6083 27.4331 42.0322 28.5939 42.029 29.7928V38.4928C42.029 39.1558 41.7656 39.7917 41.2968 40.2605C40.8279 40.7294 40.192 40.9928 39.529 40.9928H39.345L38.99 40.2028C38.8716 39.9389 38.6795 39.7149 38.4368 39.5577C38.1941 39.4006 37.9112 39.3169 37.622 39.3168H29.405L29.158 38.1588C32.4217 37.5792 35.7162 37.1889 39.025 36.9897C39.0906 36.9865 39.1549 36.9704 39.2143 36.9424C39.2737 36.9143 39.3269 36.8748 39.3711 36.8262C39.4152 36.7775 39.4493 36.7206 39.4714 36.6588C39.4935 36.5969 39.5032 36.5313 39.5 36.4658C39.492 36.3336 39.4325 36.2099 39.3344 36.1211C39.2363 36.0323 39.1072 35.9855 38.975 35.9908C38.964 35.9908 38.731 36.0038 38.337 36.0308V31.0598C38.337 30.9271 38.2843 30.8 38.1906 30.7062C38.0968 30.6124 37.9696 30.5598 37.837 30.5598C37.7044 30.5598 37.5772 30.6124 37.4834 30.7062C37.3897 30.8 37.337 30.9271 37.337 31.0598V36.1077C35.457 36.2577 32.212 36.5777 28.95 37.1847L26.75 26.8518C26.727 26.739 26.6658 26.6376 26.5767 26.5647C26.4876 26.4919 26.3761 26.452 26.261 26.4518H21.229C21.9992 25.5763 23.0492 24.9953 24.2 24.8078V24.8078ZM13 41.3238L9.636 27.4558H25.856L28.511 39.9248C28.534 40.0375 28.5952 40.1389 28.6843 40.2118C28.7734 40.2846 28.8849 40.3245 29 40.3248H37.62C37.7169 40.3252 37.8116 40.3538 37.8925 40.407C37.9735 40.4603 38.0372 40.5359 38.076 40.6248L38.394 41.3328L13 41.3238ZM24.785 29.3308C24.785 29.4634 24.7323 29.5905 24.6386 29.6843C24.5448 29.7781 24.4176 29.8308 24.285 29.8308H21.694C21.5614 29.8308 21.4342 29.7781 21.3404 29.6843C21.2467 29.5905 21.194 29.4634 21.194 29.3308C21.194 29.1981 21.2467 29.071 21.3404 28.9772C21.4342 28.8834 21.5614 28.8308 21.694 28.8308H24.285C24.4176 28.8308 24.5448 28.8834 24.6386 28.9772C24.7323 29.071 24.785 29.1981 24.785 29.3308ZM8.118 21.6008C9.858 21.6928 12.764 21.6678 13.627 21.6578C14.6034 22.9121 15.737 24.0356 17 25.0008C17.0806 25.0513 17.1738 25.0784 17.269 25.0788C17.3841 25.0785 17.4956 25.0386 17.5847 24.9658C17.6738 24.8929 17.735 24.7915 17.758 24.6788C17.769 24.6318 17.995 23.5448 18.35 21.3618C19.3183 21.4291 20.2807 21.1649 21.079 20.6128C21.3923 20.3573 21.6472 20.0377 21.8266 19.6755C22.006 19.3132 22.1057 18.9168 22.119 18.5127C22.255 16.7127 22.494 10.7568 19.819 9.60275C17.732 8.70275 7.799 8.54975 6.169 9.96275C4.5 11.4108 4.016 13.7117 4.39 18.4537C4.534 20.2797 5.962 21.4848 8.118 21.6008ZM6.82 10.7208C7.914 9.77175 17.334 9.62075 19.42 10.5208C20.962 11.1858 21.387 14.9758 21.12 18.4368C21.1155 18.7021 21.054 18.9634 20.9396 19.2029C20.8252 19.4424 20.6606 19.6545 20.457 19.8247C19.7217 20.2728 18.8529 20.4497 18.001 20.3247C17.8708 20.3055 17.7382 20.3383 17.632 20.4162C17.5259 20.4941 17.4547 20.6107 17.434 20.7408C17.218 22.0888 17.043 23.0748 16.928 23.6918C15.9597 22.8163 15.0656 21.862 14.255 20.8387C14.2082 20.7792 14.1485 20.7311 14.0805 20.698C14.0124 20.665 13.9377 20.6478 13.862 20.6477H13.854C13.817 20.6477 10.154 20.6998 8.167 20.5948C6.503 20.5068 5.489 19.6948 5.384 18.3698C4.993 13.3777 5.643 11.7408 6.82 10.7208ZM9.73 19.6908C9.86261 19.6908 9.98979 19.6381 10.0836 19.5443C10.1773 19.4505 10.23 19.3234 10.23 19.1908V17.7908C10.231 17.3638 10.3733 16.9492 10.6347 16.6116C10.8961 16.2741 11.2619 16.0325 11.675 15.9248L12 15.8398C12.2837 16.005 12.6057 16.0929 12.934 16.0948H13.523C13.847 16.0929 14.165 16.0071 14.446 15.8458L14.782 15.9248C15.1974 16.0302 15.5661 16.2708 15.83 16.6085C16.0939 16.9463 16.2381 17.3621 16.24 17.7908V19.1908C16.24 19.3234 16.2927 19.4505 16.3864 19.5443C16.4802 19.6381 16.6074 19.6908 16.74 19.6908C16.8726 19.6908 16.9998 19.6381 17.0936 19.5443C17.1873 19.4505 17.24 19.3234 17.24 19.1908V17.7908C17.2366 17.1775 17.0408 16.5807 16.6802 16.0846C16.3196 15.5885 15.8123 15.2182 15.23 15.0258C15.3602 14.7662 15.4286 14.4801 15.43 14.1898V12.7468C15.4295 12.2415 15.2285 11.7571 14.8711 11.3999C14.5137 11.0428 14.0292 10.842 13.524 10.8418H12.935C12.4298 10.842 11.9453 11.0428 11.5879 11.3999C11.2305 11.7571 11.0295 12.2415 11.029 12.7468V14.1898C11.0311 14.4797 11.0995 14.7653 11.229 15.0248C10.6481 15.2185 10.1427 15.5897 9.78389 16.0859C9.42509 16.5821 9.23101 17.1784 9.229 17.7908V19.1908C9.229 19.2565 9.24197 19.3216 9.26716 19.3823C9.29235 19.4431 9.32926 19.4982 9.3758 19.5447C9.42234 19.5911 9.47757 19.6279 9.53835 19.653C9.59913 19.678 9.66425 19.6909 9.73 19.6908ZM12.03 12.7468C12.0305 12.5067 12.1262 12.2767 12.296 12.1071C12.4658 11.9374 12.696 11.842 12.936 11.8418H13.525C13.765 11.842 13.9952 11.9374 14.165 12.1071C14.3348 12.2767 14.4305 12.5067 14.431 12.7468V14.1898C14.4292 14.4289 14.3329 14.6577 14.1632 14.8262C13.9936 14.9948 13.7642 15.0895 13.525 15.0898H12.936C12.6968 15.0895 12.4674 14.9948 12.2978 14.8262C12.1281 14.6577 12.0318 14.4289 12.03 14.1898V12.7468Z" fill="black"/>
</svg>
