<svg width="64" height="64" viewBox="0 0 64 64" fill="none" xmlns="http://www.w3.org/2000/svg">
<path d="M14 39C10.4 39 7.5 36.1 7.5 32.5C7.5 28.9 10.4 26 14 26C17.6 26 20.5 28.9 20.5 32.5C20.5 36.1 17.6 39 14 39ZM14 27C11 27 8.5 29.5 8.5 32.5C8.5 35.5 11 38 14 38C17 38 19.5 35.5 19.5 32.5C19.5 29.5 17 27 14 27ZM23.5 60C23.2 60 23 59.8 23 59.5V45.3C23 43.4 21.4 41.8 19.5 41.8H8.5C6.6 41.8 5 43.4 5 45.3V59.6C5 59.8 4.8 60 4.5 60C4.2 60 4 59.8 4 59.5V45.3C4 42.8 6 40.8 8.5 40.8H19.5C22 40.8 24 42.8 24 45.3V59.6C24 59.8 23.8 60 23.5 60Z" fill="black"/>
<path d="M14 52.9C13.8 52.9 13.6 52.7 13.5 52.5L10.7 41.4C10.7 41.3 10.7 41.1 10.8 41C10.9 40.9 11 40.8 11.2 40.8H16.8C17 40.8 17.1 40.9 17.2 41C17.3 41.1 17.3 41.3 17.3 41.4L14.5 52.5C14.4 52.7 14.2 52.9 14 52.9ZM11.8 41.8L14 50.4L16.2 41.8H11.8ZM48 39C44.4 39 41.5 36.1 41.5 32.5C41.5 28.9 44.4 26 48 26C51.5999 26 54.5 28.9 54.5 32.5C54.5 36.1 51.5999 39 48 39ZM48 27C45 27 42.5 29.5 42.5 32.5C42.5 35.5 45 38 48 38C51 38 53.5 35.5 53.5 32.5C53.5 29.5 51 27 48 27ZM57.5 60C57.2 60 57 59.8 57 59.5V45.3C57 43.4 55.4 41.8 53.5 41.8H42.5C40.6 41.8 39 43.4 39 45.3V59.6C39 59.9 38.7999 60.1 38.5 60.1C38.2 60.1 38 59.8 38 59.5V45.3C38 42.8 40 40.8 42.5 40.8H53.5C56 40.8 58 42.8 58 45.3V59.6C58 59.8 57.7999 60 57.5 60Z" fill="black"/>
<path d="M48 52.9C47.8 52.9 47.6 52.7 47.5 52.5L44.7 41.4C44.7 41.3 44.7 41.1 44.8 41C44.9 40.9 45 40.8 45.2 40.8H50.8C51 40.8 51.1 40.9 51.2 41C51.3 41.1 51.3 41.3 51.3 41.4L48.5 52.5C48.4 52.7 48.2 52.9 48 52.9ZM45.8 41.8L48 50.4L50.2 41.8H45.8ZM21.5 28.2H21.3C21.1 28 21 27.9 21 27.7V19.5C21 18.1 22.1 17 23.5 17H30.5C31.9 17 33 18.1 33 19.5V23.5C33 24.9 31.9 26 30.5 26H23.8L21.9 28C21.8 28.1 21.6 28.2 21.5 28.2ZM23.5 18C22.7 18 22 18.7 22 19.5V26.4L23.2 25.1C23.3 25 23.4 24.9 23.6 24.9H30.5C31.3 24.9 32 24.2 32 23.4V19.4C32 18.6 31.3 17.9 30.5 17.9H23.5V18ZM4.5 26.2H4.3C4.1 26 4 25.8 4 25.7V17.5C4 16.1 5.1 15 6.5 15H13.5C14.9 15 16 16.1 16 17.5V21.5C16 22.9 14.9 24 13.5 24H7.2L4.8 26C4.7 26.1 4.6 26.2 4.5 26.2ZM6.5 16C5.7 16 5 16.7 5 17.5V24.6L6.7 23.2C6.8 23 6.9 23 7 23H13.5C14.3 23 15 22.3 15 21.5V17.5C15 16.7 14.3 16 13.5 16H6.5Z" fill="black"/>
<path d="M12.5 21H7.5C7.2 21 7 20.8 7 20.5C7 20.2 7.2 20 7.5 20H12.5C12.8 20 13 20.2 13 20.5C13 20.8 12.8 21 12.5 21ZM12.5 19H7.5C7.2 19 7 18.8 7 18.5C7 18.2 7.2 18 7.5 18H12.5C12.8 18 13 18.2 13 18.5C13 18.8 12.8 19 12.5 19ZM29.5 23H24.5C24.2 23 24 22.8 24 22.5C24 22.2 24.2 22 24.5 22H29.5C29.8 22 30 22.2 30 22.5C30 22.8 29.8 23 29.5 23ZM29.5 21H24.5C24.2 21 24 20.8 24 20.5C24 20.2 24.2 20 24.5 20H29.5C29.8 20 30 20.2 30 20.5C30 20.8 29.8 21 29.5 21ZM56.5 17H41.5C41.2 17 41 16.8 41 16.5C41 16.2 41.2 16 41.5 16H56.5C56.8 16 57 16.2 57 16.5C57 16.8 56.8 17 56.5 17ZM56.5 19H41.5C41.2 19 41 18.8 41 18.5C41 18.2 41.2 18 41.5 18H56.5C56.8 18 57 18.2 57 18.5C57 18.8 56.8 19 56.5 19ZM54.5 21H41.5C41.2 21 41 20.8 41 20.5C41 20.2 41.2 20 41.5 20H54.5C54.8 20 55 20.2 55 20.5C55 20.8 54.8 21 54.5 21ZM56.5 15H45.5C45.2 15 45 14.8 45 14.5C45 14.2 45.2 14 45.5 14H56.5C56.8 14 57 14.2 57 14.5C57 14.8 56.8 15 56.5 15ZM26.5 12H21.5C21.2 12 21 11.8 21 11.5C21 11.2 21.2 11 21.5 11H26.5C26.8 11 27 11.2 27 11.5C27 11.8 26.8 12 26.5 12Z" fill="black"/>
<path d="M18.5 18.2H18.4C18.2 18.1 18 17.9 18 17.7V10.5C18 9.1 19.1 8 20.5 8H27.5C28.9 8 30 9.1 30 10.5V12.5C30 13.9 28.9 15 27.5 15H20.9L19 17.9C18.8 18.1 18.7 18.2 18.5 18.2ZM20.5 9C19.7 9 19 9.7 19 10.5V16L20.2 14.2C20.3 14.1 20.4 14 20.6 14H27.5C28.3 14 29 13.3 29 12.5V10.5C29 9.7 28.3 9 27.5 9H20.5ZM38.5 28H38.3C38.1 27.9 38 27.7 38 27.5V13.5C38 12.1 39.1 11 40.5 11H57.5C58.9 11 60 12.1 60 13.5V21.5C60 22.9 58.9 24 57.5 24H42.7L38.8 27.9C38.8 27.9 38.6 28 38.5 28ZM40.5 12C39.7 12 39 12.7 39 13.5V26.3L42.1 23.2C42.2 23.1 42.3 23.1 42.5 23.1H57.5C58.3 23.1 59 22.4 59 21.6V13.6C59 12.8 58.3 12.1 57.5 12.1H40.5V12Z" fill="black"/>
</svg>
