<svg width="32" height="32" viewBox="0 0 32 32" fill="none" xmlns="http://www.w3.org/2000/svg">
<g clip-path="url(#clip0)">
<path d="M18.5 4H22.5C22.6326 4 22.7598 3.94732 22.8536 3.85355C22.9473 3.75979 23 3.63261 23 3.5C23 3.36739 22.9473 3.24021 22.8536 3.14645C22.7598 3.05268 22.6326 3 22.5 3H18.5C18.3674 3 18.2402 3.05268 18.1464 3.14645C18.0527 3.24021 18 3.36739 18 3.5C18 3.63261 18.0527 3.75979 18.1464 3.85355C18.2402 3.94732 18.3674 4 18.5 4ZM26.38 14.5C26.38 14.6326 26.4327 14.7598 26.5264 14.8536C26.6202 14.9473 26.7474 15 26.88 15C27.0126 15 27.1398 14.9473 27.2336 14.8536C27.3273 14.7598 27.38 14.6326 27.38 14.5C27.3756 14.4009 27.3999 14.3026 27.45 14.217C27.5616 13.9945 27.6196 13.7489 27.6196 13.5C27.6196 13.2511 27.5616 13.0055 27.45 12.783C27.4033 12.6958 27.3788 12.5984 27.3788 12.4995C27.3788 12.4006 27.4033 12.3032 27.45 12.216C27.5664 11.9956 27.6249 11.7492 27.62 11.5C27.62 11.3674 27.5673 11.2402 27.4736 11.1464C27.3798 11.0527 27.2526 11 27.12 11C26.9874 11 26.8602 11.0527 26.7664 11.1464C26.6727 11.2402 26.62 11.3674 26.62 11.5C26.6244 11.5988 26.6001 11.6967 26.55 11.782C26.4384 12.0045 26.3804 12.2501 26.3804 12.499C26.3804 12.7479 26.4384 12.9935 26.55 13.216C26.5964 13.3035 26.6207 13.401 26.6207 13.5C26.6207 13.599 26.5964 13.6965 26.55 13.784C26.4341 14.0046 26.3757 14.2508 26.38 14.5V14.5ZM25.62 11.5C25.62 11.3674 25.5673 11.2402 25.4736 11.1464C25.3798 11.0527 25.2526 11 25.12 11C24.9874 11 24.8602 11.0527 24.7664 11.1464C24.6727 11.2402 24.62 11.3674 24.62 11.5C24.6244 11.5988 24.6001 11.6967 24.55 11.782C24.4384 12.0045 24.3804 12.2501 24.3804 12.499C24.3804 12.7479 24.4384 12.9935 24.55 13.216C24.5964 13.3035 24.6207 13.401 24.6207 13.5C24.6207 13.599 24.5964 13.6965 24.55 13.784C24.4345 14.0047 24.3763 14.2509 24.381 14.5C24.381 14.6326 24.4337 14.7598 24.5274 14.8536C24.6212 14.9473 24.7484 15 24.881 15C25.0136 15 25.1408 14.9473 25.2346 14.8536C25.3283 14.7598 25.381 14.6326 25.381 14.5C25.3766 14.4009 25.4009 14.3026 25.451 14.217C25.5626 13.9945 25.6206 13.7489 25.6206 13.5C25.6206 13.2511 25.5626 13.0055 25.451 12.783C25.4043 12.6958 25.3798 12.5984 25.3798 12.4995C25.3798 12.4006 25.4043 12.3032 25.451 12.216C25.5671 11.9955 25.6252 11.7491 25.62 11.5V11.5ZM31.5 21H28.488C28.7151 20.7056 28.873 20.3638 28.95 20H29.5C29.8978 20 30.2794 19.842 30.5607 19.5607C30.842 19.2794 31 18.8978 31 18.5C31 18.1022 30.842 17.7206 30.5607 17.4393C30.2794 17.158 29.8978 17 29.5 17H29V16.5C29 16.3674 28.9473 16.2402 28.8536 16.1464C28.7598 16.0527 28.6326 16 28.5 16H23.5C23.3674 16 23.2402 16.0527 23.1464 16.1464C23.0527 16.2402 23 16.3674 23 16.5V19.5C23.0017 20.0426 23.1816 20.5696 23.512 21H22V20.5C22 19.5717 21.6313 18.6815 20.9749 18.0251C20.3185 17.3687 19.4283 17 18.5 17V16C18.4976 15.9828 18.4943 15.9658 18.49 15.949C18.963 15.6783 19.3756 15.3137 19.7023 14.8775C20.0291 14.4414 20.2631 13.943 20.39 13.413C20.3954 13.3979 20.4001 13.3826 20.404 13.367C20.5361 12.7923 20.5384 12.1954 20.4109 11.6196C20.2833 11.0439 20.029 10.5039 19.6664 10.0388C19.3039 9.57368 18.8423 9.19523 18.3152 8.93095C17.788 8.66667 17.2086 8.52321 16.619 8.511C16.4795 8.35117 16.3076 8.22292 16.1146 8.13481C15.9217 8.04669 15.7121 8.00073 15.5 8H4.5C3.83696 8 3.20107 8.26339 2.73223 8.73223C2.26339 9.20107 2 9.83696 2 10.5V19.092C1.70855 19.195 1.45605 19.3856 1.27704 19.6376C1.09804 19.8897 1.00128 20.1909 1 20.5V21H0.5C0.367392 21 0.240215 21.0527 0.146447 21.1464C0.0526784 21.2402 0 21.3674 0 21.5L0 22.5C0.000112869 23.0762 0.199227 23.6346 0.563663 24.0808C0.928099 24.5271 1.43549 24.8338 2 24.949V31.5C2 31.6326 2.05268 31.7598 2.14645 31.8536C2.24021 31.9473 2.36739 32 2.5 32C2.63261 32 2.75979 31.9473 2.85355 31.8536C2.94732 31.7598 3 31.6326 3 31.5V25H5V31.5C5 31.6326 5.05268 31.7598 5.14645 31.8536C5.24021 31.9473 5.36739 32 5.5 32C5.63261 32 5.75979 31.9473 5.85355 31.8536C5.94732 31.7598 6 31.6326 6 31.5V25H9V31.5C9 31.6326 9.05268 31.7598 9.14645 31.8536C9.24021 31.9473 9.36739 32 9.5 32C9.63261 32 9.75979 31.9473 9.85355 31.8536C9.94732 31.7598 10 31.6326 10 31.5V24.5C10 24.1022 10.158 23.7206 10.4393 23.4393C10.7206 23.158 11.1022 23 11.5 23H21.5C21.8978 23 22.2794 23.158 22.5607 23.4393C22.842 23.7206 23 24.1022 23 24.5V31.5C23 31.6326 23.0527 31.7598 23.1464 31.8536C23.2402 31.9473 23.3674 32 23.5 32C23.6326 32 23.7598 31.9473 23.8536 31.8536C23.9473 31.7598 24 31.6326 24 31.5V25H26V31.5C26 31.6326 26.0527 31.7598 26.1464 31.8536C26.2402 31.9473 26.3674 32 26.5 32C26.6326 32 26.7598 31.9473 26.8536 31.8536C26.9473 31.7598 27 31.6326 27 31.5V25H29V31.5C29 31.6326 29.0527 31.7598 29.1464 31.8536C29.2402 31.9473 29.3674 32 29.5 32C29.6326 32 29.7598 31.9473 29.8536 31.8536C29.9473 31.7598 30 31.6326 30 31.5V24.949C30.5645 24.8338 31.0719 24.5271 31.4363 24.0808C31.8008 23.6346 31.9999 23.0762 32 22.5V21.5C32 21.3674 31.9473 21.2402 31.8536 21.1464C31.7598 21.0527 31.6326 21 31.5 21ZM29 18H29.5C29.6326 18 29.7598 18.0527 29.8536 18.1464C29.9473 18.2402 30 18.3674 30 18.5C30 18.6326 29.9473 18.7598 29.8536 18.8536C29.7598 18.9473 29.6326 19 29.5 19H29V18ZM16.5 15.5C15.9996 15.4988 15.5075 15.3725 15.0684 15.1325C14.6293 14.8925 14.2572 14.5465 13.986 14.126C15.6252 14.625 17.3758 14.625 19.015 14.126C18.7437 14.5467 18.3715 14.8927 17.9322 15.1327C17.4929 15.3727 17.0006 15.499 16.5 15.5V15.5ZM17.5 16.358V17.5C17.5 17.6326 17.4473 17.7598 17.3536 17.8536C17.2598 17.9473 17.1326 18 17 18H16C15.8674 18 15.7402 17.9473 15.6464 17.8536C15.5527 17.7598 15.5 17.6326 15.5 17.5V16.358C16.1532 16.5473 16.8468 16.5473 17.5 16.358ZM10.74 14.342C10.8935 14.1165 10.9826 13.8535 10.9977 13.5812C11.0128 13.3089 10.9534 13.0376 10.8259 12.7966C10.6984 12.5555 10.5075 12.3537 10.2739 12.213C10.0403 12.0723 9.77273 11.998 9.5 11.998C9.22727 11.998 8.95971 12.0723 8.72608 12.213C8.49246 12.3537 8.30162 12.5555 8.17409 12.7966C8.04657 13.0376 7.98718 13.3089 8.00231 13.5812C8.01745 13.8535 8.10654 14.1165 8.26 14.342C7.87851 14.5588 7.56108 14.8726 7.33982 15.2516C7.11856 15.6305 7.00134 16.0612 7 16.5V17H5V11H12.8C12.4873 11.7486 12.4174 12.5765 12.6 13.367C12.6039 13.3826 12.6086 13.3979 12.614 13.413C12.7409 13.943 12.9749 14.4414 13.3017 14.8775C13.6284 15.3137 14.041 15.6783 14.514 15.949C14.5084 15.9657 14.5037 15.9827 14.5 16V17H12V16.5C11.9987 16.0612 11.8814 15.6305 11.6602 15.2516C11.4389 14.8726 11.1215 14.5588 10.74 14.342V14.342ZM9.5 15C9.89782 15 10.2794 15.158 10.5607 15.4393C10.842 15.7206 11 16.1022 11 16.5V17H8V16.5C8 16.1022 8.15804 15.7206 8.43934 15.4393C8.72064 15.158 9.10218 15 9.5 15ZM9 13.5C9 13.4011 9.02932 13.3044 9.08426 13.2222C9.13921 13.14 9.2173 13.0759 9.30866 13.0381C9.40002 13.0002 9.50056 12.9903 9.59755 13.0096C9.69454 13.0289 9.78363 13.0765 9.85355 13.1464C9.92348 13.2164 9.9711 13.3055 9.99039 13.4025C10.0097 13.4994 9.99978 13.6 9.96194 13.6913C9.9241 13.7827 9.86001 13.8608 9.77779 13.9157C9.69556 13.9707 9.59889 14 9.5 14C9.36739 14 9.24021 13.9473 9.14645 13.8536C9.05268 13.7598 9 13.6326 9 13.5ZM16.5 9.5C17.2956 9.5 18.0587 9.81607 18.6213 10.3787C19.1839 10.9413 19.5 11.7044 19.5 12.5C19.4954 12.6317 19.4821 12.763 19.46 12.893C17.5608 13.6595 15.4382 13.6595 13.539 12.893C13.4764 12.5345 13.486 12.1672 13.567 11.8125C13.6481 11.4577 13.799 11.1227 14.011 10.827V10.821C14.286 10.4138 14.6568 10.0804 15.0908 9.85009C15.5247 9.61975 16.0087 9.49953 16.5 9.5V9.5ZM11 22.051C10.5206 22.1498 10.0808 22.3871 9.735 22.7336C9.38925 23.0801 9.15281 23.5204 9.055 24H2.5C2.10218 24 1.72064 23.842 1.43934 23.5607C1.15804 23.2794 1 22.8978 1 22.5V22H11V22.051ZM11 20.5V21H2V20.5C2 20.3674 2.05268 20.2402 2.14645 20.1464C2.24021 20.0527 2.36739 20 2.5 20H11.051C11.0219 20.1652 11.0048 20.3323 11 20.5V20.5ZM11.351 19H3V10.5C3 10.1022 3.15804 9.72064 3.43934 9.43934C3.72064 9.15804 4.10218 9 4.5 9H14.6C14.1382 9.25123 13.7304 9.59104 13.4 10H4.5C4.36739 10 4.24021 10.0527 4.14645 10.1464C4.05268 10.2402 4 10.3674 4 10.5V17.5C4 17.6326 4.05268 17.7598 4.14645 17.8536C4.24021 17.9473 4.36739 18 4.5 18H12.058C11.7655 18.2893 11.5262 18.6278 11.351 19V19ZM21 22H12V20.5C12 19.837 12.2634 19.2011 12.7322 18.7322C13.2011 18.2634 13.837 18 14.5 18H14.592C14.695 18.2915 14.8856 18.544 15.1377 18.723C15.3897 18.902 15.6909 18.9987 16 19H17C17.3091 18.9987 17.6103 18.902 17.8624 18.723C18.1144 18.544 18.305 18.2915 18.408 18H18.5C19.163 18 19.7989 18.2634 20.2678 18.7322C20.7366 19.2011 21 19.837 21 20.5V22ZM24 17H28V19.5C28 19.8978 27.842 20.2794 27.5607 20.5607C27.2794 20.842 26.8978 21 26.5 21H25.5C25.1022 21 24.7206 20.842 24.4393 20.5607C24.158 20.2794 24 19.8978 24 19.5V17ZM31 22.5C31 22.8978 30.842 23.2794 30.5607 23.5607C30.2794 23.842 29.8978 24 29.5 24H23.945C23.8472 23.5204 23.6108 23.0801 23.265 22.7336C22.9192 22.3871 22.4794 22.1498 22 22.051V22H31V22.5ZM17.5 7H19.035L19.535 8.3C19.5646 8.3779 19.6133 8.44716 19.6765 8.50148C19.7397 8.55579 19.8155 8.59344 19.897 8.611C19.9299 8.61771 19.9634 8.6214 19.997 8.622C20.0627 8.62212 20.1278 8.60928 20.1885 8.58423C20.2493 8.55918 20.3045 8.5224 20.351 8.476L21.828 7H23.5C23.8283 7 24.1534 6.93534 24.4567 6.8097C24.76 6.68406 25.0356 6.49991 25.2678 6.26777C25.4999 6.03562 25.6841 5.76002 25.8097 5.45671C25.9353 5.15339 26 4.8283 26 4.5V2.5C26 1.83696 25.7366 1.20107 25.2678 0.732233C24.7989 0.263392 24.163 0 23.5 0L17.5 0C16.837 0 16.2011 0.263392 15.7322 0.732233C15.2634 1.20107 15 1.83696 15 2.5V4.5C15 5.16304 15.2634 5.79893 15.7322 6.26777C16.2011 6.73661 16.837 7 17.5 7V7ZM16 2.5C16 2.10218 16.158 1.72064 16.4393 1.43934C16.7206 1.15804 17.1022 1 17.5 1H23.5C23.8978 1 24.2794 1.15804 24.5607 1.43934C24.842 1.72064 25 2.10218 25 2.5V4.5C25 4.89782 24.842 5.27936 24.5607 5.56066C24.2794 5.84196 23.8978 6 23.5 6H21.621C21.5553 5.99988 21.4902 6.01272 21.4295 6.03777C21.3687 6.06282 21.3135 6.0996 21.267 6.146L20.191 7.223L19.845 6.323C19.8092 6.22831 19.7454 6.14674 19.6622 6.08906C19.579 6.03138 19.4802 6.00033 19.379 6H17.5C17.1022 6 16.7206 5.84196 16.4393 5.56066C16.158 5.27936 16 4.89782 16 4.5V2.5Z" fill="black"/>
</g>
<defs>
<clipPath id="clip0">
<rect width="32" height="32" fill="white"/>
</clipPath>
</defs>
</svg>
