<svg xmlns="http://www.w3.org/2000/svg" width="28.87878857937517" height="50.424242284124944" style=""><rect id="backgroundrect" width="100%" height="100%" x="0" y="0" fill="none" stroke="none" class="" style=""/><defs><style>.a{fill:#313a4d;}.b{fill:#e06a59;}</style></defs><g class="currentLayer" style=""><title>Layer 1</title><g id="svg_1" class=""><g id="svg_2"><path class="a" d="M51.114421277523036,19.560487398147586 q1.51,0.9 1.51,1.9180000000000001 a3.588,3.588 0 0 1 -0.5810000000000006,1.6 l-6.014,10.315 a2.6660000000000004,2.6660000000000004 0 0 1 -0.929,0.8870000000000008 a2.4290000000000003,2.4290000000000003 0 0 1 -1.2650000000000001,0.3900000000000004 a2.46,2.46 0 0 1 -1.192,-0.3060000000000003 a2.345,2.345 0 0 1 -0.8,-0.6240000000000007 l-0.261,-0.3200000000000004 l-6.042,-10.343 a3.27,3.27 0 0 1 -0.5830000000000006,-1.57 q0,-1.044 1.512,-1.9460000000000002 a3.851,3.851 0 0 1 1.742,-0.6390000000000008 a1.314,1.314 0 0 1 1.005,0.3920000000000004 a5.5,5.5 0 0 1 0.7680000000000008,1.178 l3.806,7.321 l3.808,-7.321 c0.21200000000000016,-0.3690000000000003 0.37300000000000033,-0.6340000000000008 0.4790000000000003,-0.8 a1.8800000000000003,1.8800000000000003 0 0 1 0.507,-0.4930000000000003 a1.5870000000000002,1.5870000000000002 0 0 1 0.931,-0.24700000000000016 A3.474,3.474 0 0 1 51.114421277523036,19.560487398147586 z" id="svg_3"/><path class="a" d="M59.00342298650742,16.379481294631958 a1.233,1.233 0 0 1 -0.77,0.6000000000000006 a6.3100000000000005,6.3100000000000005 0 0 1 -2.936,0 a1.215,1.215 0 0 1 -0.7680000000000008,-0.6110000000000007 a2.433,2.433 0 0 1 -0.263,-0.7680000000000008 a11.872,11.872 0 0 1 0,-2 a2.435,2.435 0 0 1 0.24700000000000016,-0.7420000000000007 q0.405,-0.784 2.266,-0.784 c1.221,0 1.955,0.261 2.21,0.784 a2.351,2.351 0 0 1 0.276,0.7680000000000008 a11.415,11.415 0 0 1 0,2.007 A2.34,2.34 0 0 1 59.00342298650742,16.379481294631958 zm-4.78,5.391 a8.312,8.312 0 0 1 0.04200000000000005,-1 a2.782,2.782 0 0 1 0.24700000000000016,-0.77 q0.405,-0.7550000000000007 2.266,-0.7560000000000007 a3.082,3.082 0 0 1 1.976,0.49500000000000033 a1.6,1.6 0 0 1 0.523,1.249 c0.01900000000000002,0.19400000000000023 0.03000000000000004,0.4750000000000003 0.03000000000000004,0.8430000000000006 v10.17 a8.583,8.583 0 0 1 -0.04400000000000006,1 a2.331,2.331 0 0 1 -0.276,0.77 q-0.38100000000000034,0.7550000000000007 -2.24,0.7540000000000007 c-1.219,0 -1.9660000000000002,-0.261 -2.236,-0.784 a2.783,2.783 0 0 1 -0.24700000000000016,-0.7560000000000007 a8.219,8.219 0 0 1 -0.04200000000000005,-1.016 z" id="svg_4"/><path class="a" d="M80.54642506170273,24.35348257637024 l-1.8880000000000003,-0.1150000000000001 v4.009 a1.9849999999999999,1.9849999999999999 0 0 0 0.24900000000000017,1.1320000000000001 a1.065,1.065 0 0 0 0.929,0.3480000000000005 a9.1,9.1 0 0 1 1.046,0.046000000000000076 a1.824,1.824 0 0 1 0.7420000000000007,0.276 q0.7000000000000006,0.37900000000000034 0.7000000000000006,1.9460000000000002 q0,1.831 -0.8140000000000006,2.238 a2.755,2.755 0 0 1 -0.7680000000000008,0.24700000000000016 a8.353,8.353 0 0 1 -0.973,0.04200000000000005 a6.4,6.4 0 0 1 -4.532,-1.51 a5.807,5.807 0 0 1 -1.6280000000000001,-4.474 v-4.3 q-1.4,0.11700000000000012 -2.324,0.1150000000000001 l-2.644,-0.1150000000000001 v4.009 a2,2 0 0 0 0.24600000000000016,1.1320000000000001 a1.068,1.068 0 0 0 0.931,0.3480000000000005 a9.075,9.075 0 0 1 1.046,0.046000000000000076 a2.065,2.065 0 0 1 0.772,0.276 q0.6680000000000009,0.37900000000000034 0.6680000000000009,1.9460000000000002 q0,1.831 -0.812,2.238 a2.81,2.81 0 0 1 -0.772,0.24700000000000016 a8.33,8.33 0 0 1 -0.973,0.04200000000000005 a6.414,6.414 0 0 1 -4.534,-1.51 a5.812,5.812 0 0 1 -1.6270000000000002,-4.474 v-4.3 a8.342,8.342 0 0 1 -1.206,0.08700000000000012 a1.323,1.323 0 0 1 -1.046,-0.4930000000000003 a2.622,2.622 0 0 1 -0.4200000000000003,-1.6870000000000007 a7.307,7.307 0 0 1 0.14500000000000016,-1.729 a1.576,1.576 0 0 1 0.406,-0.77 a1.788,1.788 0 0 1 1.1640000000000001,-0.37600000000000033 l0.9570000000000006,0.1150000000000001 V16.393482576370246 a7.811,7.811 0 0 1 0.04400000000000006,-0.987 a1.8290000000000002,1.8290000000000002 0 0 1 0.275,-0.7000000000000006 q0.37900000000000034,-0.7260000000000006 2.238,-0.7280000000000006 q1.976,0 2.353,1.076 a5.422,5.422 0 0 1 0.14700000000000016,1.482 v2.761 c0.908,-0.01900000000000002 1.772,-0.02800000000000002 2.5860000000000003,-0.02800000000000002 l2.383,0.02800000000000002 V16.393482576370246 a8.177,8.177 0 0 1 0.04400000000000006,-0.987 a2.056,2.056 0 0 1 0.24700000000000016,-0.7000000000000006 q0.405,-0.7260000000000006 2.266,-0.7280000000000006 c1.316,0 2.093,0.3600000000000003 2.323,1.076 a4.519,4.519 0 0 1 0.17500000000000004,1.482 V19.382482576370236 q1.28,-0.1140000000000001 1.9340000000000002,-0.1150000000000001 a8.085,8.085 0 0 1 0.986,0.04200000000000005 a2.106,2.106 0 0 1 0.7420000000000007,0.276 q0.784,0.37900000000000034 0.786,2.238 q0,1.831 -0.786,2.238 a2.7,2.7 0 0 1 -0.7680000000000008,0.24700000000000016 A8.338000000000001,8.338000000000001 0 0 1 80.54642506170273,24.35348257637024 z" id="svg_5"/><path class="a" d="M91.50243018865586,34.46648636054992 a6.172,6.172 0 0 1 -4.868,-2.222 a7.971,7.971 0 0 1 -1.932,-5.4190000000000005 V21.739486360549932 a8.622,8.622 0 0 1 0.04200000000000005,-1.017 a2.824,2.824 0 0 1 0.24700000000000016,-0.7560000000000007 q0.405,-0.784 2.266,-0.784 q2.035,0 2.384,1.106 a4.6,4.6 0 0 1 0.17500000000000004,1.482 v5.085 a2.332,2.332 0 0 0 2.512,2.526 a2.544,2.544 0 0 0 1.86,-0.7000000000000006 a2.448,2.448 0 0 0 0.7120000000000006,-1.83 V21.710486360549922 a8.189,8.189 0 0 1 0.04400000000000006,-1 a2.306,2.306 0 0 1 0.276,-0.77 q0.37900000000000034,-0.7550000000000007 2.238,-0.7560000000000007 q1.831,0 2.236,0.784 a2.677,2.677 0 0 1 0.24700000000000016,0.772 a8.2,8.2 0 0 1 0.04400000000000006,1 V32.025486360549934 a7.92,7.92 0 0 1 -0.04400000000000006,0.975 a2.033,2.033 0 0 1 -0.276,0.7400000000000007 q-0.43500000000000033,0.7550000000000007 -2.238,0.7560000000000007 q-1.7730000000000001,0 -2.178,-0.7000000000000006 a2.285,2.285 0 0 1 -0.2910000000000003,-1.192 a2.906,2.906 0 0 1 -0.523,0.5810000000000006 a7.15,7.15 0 0 1 -0.786,0.6410000000000008 A3.879,3.879 0 0 1 91.50243018865586,34.46648636054992 z" id="svg_6"/><path class="a" d="M112.58042359685896,12.834481294631956 a1.241,1.241 0 0 1 0.77,-0.6000000000000006 a6.3100000000000005,6.3100000000000005 0 0 1 2.936,0 a1.227,1.227 0 0 1 0.7680000000000008,0.6110000000000007 a2.556,2.556 0 0 1 0.263,0.7680000000000008 a9.152,9.152 0 0 1 0.04200000000000005,1.005 V31.968481294631957 a9.078,9.078 0 0 1 -0.04200000000000005,1 a2.135,2.135 0 0 1 -0.276,0.7400000000000007 q-0.43700000000000033,0.787 -2.457,0.786 t-2.25,-1.424 a4.284,4.284 0 0 1 -3.4,1.3940000000000001 a6.447,6.447 0 0 1 -4.767,-2.2800000000000002 a7.651,7.651 0 0 1 0.01400000000000001,-10.649000000000001 a6.456,6.456 0 0 1 4.753,-2.3 a4.08,4.08 0 0 1 3.34,1.452 v-6.1 a8.193,8.193 0 0 1 0.04400000000000006,-1 A2.338,2.338 0 0 1 112.58042359685896,12.834481294631956 zm-4.723,15.79 a2.447,2.447 0 0 0 1.832,0.786 a2.309,2.309 0 0 0 1.787,-0.786 a2.51,2.51 0 0 0 0.7120000000000006,-1.727 a2.6820000000000004,2.6820000000000004 0 0 0 -0.6820000000000009,-1.7570000000000001 a2.291,2.291 0 0 0 -1.846,-0.8140000000000006 a2.345,2.345 0 0 0 -1.86,0.8 a2.613,2.613 0 0 0 -0.7000000000000006,1.7590000000000003 A2.455,2.455 0 0 0 107.85742359685901,28.625481294631953 z" id="svg_7"/><path class="a" d="M134.4454291510582,25.03748690986633 a3.5300000000000002,3.5300000000000002 0 0 1 -0.8850000000000008,2.644 a2.765,2.765 0 0 1 -1.961,0.8580000000000007 h-6.888 a1.6,1.6 0 0 0 0.9590000000000006,1.365 a3.829,3.829 0 0 0 1.9180000000000001,0.553 a7.971,7.971 0 0 0 2.644,-0.3510000000000003 l0.3200000000000004,-0.1150000000000001 a2.951,2.951 0 0 1 1.162,-0.3200000000000004 q0.93,0 1.6,1.307 a3.2,3.2 0 0 1 0.37800000000000034,1.3370000000000002 q0,2.5860000000000003 -6.189,2.5860000000000003 a9.3,9.3 0 0 1 -3.8200000000000003,-0.7420000000000007 a6.466,6.466 0 0 1 -2.6,-1.961 a8.353,8.353 0 0 1 -1.83,-5.26 a7.6,7.6 0 0 1 2.367,-5.853 a8.369,8.369 0 0 1 5.914,-2.194 a6.6,6.6 0 0 1 5.928,2.847 A5.9,5.9 0 0 1 134.4454291510582,25.03748690986633 zm-6.131,0.8580000000000007 q1.1,0 1.1,-0.931 a1.307,1.307 0 0 0 -0.509,-1.076 a2.267,2.267 0 0 0 -1.452,-0.406 a2.9450000000000003,2.9450000000000003 0 0 0 -1.874,0.77 a2.162,2.162 0 0 0 -0.931,1.6430000000000002 z" id="svg_8"/></g><g id="svg_9"><path class="b" d="M14.749419873714487,23.421483339309688 c2.028,-3.613 4.658,-6.942 6.035,-9.042 c4.732,-7.208 2.167,-9.531 2.167,-9.531 a21.9,21.9 0 0 1 -3.1470000000000002,5.937 c-4.2,5.8900000000000015 -6.445,8.477 -8.134,10.652000000000001 c-1.5510000000000002,-0.9590000000000006 -2.948,-1.783 -3.963,-2.471 a30.2,30.2 0 0 1 -3.414,-2.5 a3.148,3.148 0 0 0 1.588,3.294 c1.358,0.8780000000000007 3.043,1.8920000000000003 4.806,3 a39.005,39.005 0 0 0 -3.6790000000000003,6.613 c-2.5,5.371 -0.21000000000000016,16.348 10.984,14.275 a7.646,7.646 0 0 0 6.06,-7.071 C24.443419873714447,31.0634833393097 19.54341987371447,26.681483339309693 14.749419873714487,23.421483339309688 zm5.7620000000000005,13.707 c-1.447,1.513 -5.7,2.6470000000000002 -7.9,-2.265 c-1.3210000000000002,-2.941 -0.3570000000000003,-6.52 1.356,-9.962 C19.499419873714487,28.702483339309694 24.268419873714436,33.19848333930969 20.51141987371443,37.12748333930969 z" id="svg_10"/><path class="b" d="M11.86842231512071,12.694483156204228 a2.29,2.29 0 1 0 -2.289,-2.291 A2.29,2.29 0 0 0 11.86842231512071,12.694483156204228 z" id="svg_11"/></g></g></g></svg>